%TF.GenerationSoftware,KiCad,Pcbnew,(5.1.6)-1*%
%TF.CreationDate,2020-11-25T00:21:07-08:00*%
%TF.ProjectId,rc-fabgl,72632d66-6162-4676-9c2e-6b696361645f,rev?*%
%TF.SameCoordinates,PX9157080PY9071968*%
%TF.FileFunction,Legend,Bot*%
%TF.FilePolarity,Positive*%
%FSLAX46Y46*%
G04 Gerber Fmt 4.6, Leading zero omitted, Abs format (unit mm)*
G04 Created by KiCad (PCBNEW (5.1.6)-1) date 2020-11-25 00:21:07*
%MOMM*%
%LPD*%
G01*
G04 APERTURE LIST*
%ADD10C,0.150000*%
%ADD11C,0.203200*%
G04 APERTURE END LIST*
D10*
X63602619Y46167820D02*
X63935952Y46644010D01*
X64174047Y46167820D02*
X64174047Y47167820D01*
X63793095Y47167820D01*
X63697857Y47120200D01*
X63650238Y47072581D01*
X63602619Y46977343D01*
X63602619Y46834486D01*
X63650238Y46739248D01*
X63697857Y46691629D01*
X63793095Y46644010D01*
X64174047Y46644010D01*
X62793095Y46215439D02*
X62888333Y46167820D01*
X63078809Y46167820D01*
X63174047Y46215439D01*
X63221666Y46310677D01*
X63221666Y46691629D01*
X63174047Y46786867D01*
X63078809Y46834486D01*
X62888333Y46834486D01*
X62793095Y46786867D01*
X62745476Y46691629D01*
X62745476Y46596391D01*
X63221666Y46501153D01*
X62316904Y46167820D02*
X62316904Y46834486D01*
X62316904Y46739248D02*
X62269285Y46786867D01*
X62174047Y46834486D01*
X62031190Y46834486D01*
X61935952Y46786867D01*
X61888333Y46691629D01*
X61888333Y46167820D01*
X61888333Y46691629D02*
X61840714Y46786867D01*
X61745476Y46834486D01*
X61602619Y46834486D01*
X61507380Y46786867D01*
X61459761Y46691629D01*
X61459761Y46167820D01*
X60840714Y46167820D02*
X60935952Y46215439D01*
X60983571Y46263058D01*
X61031190Y46358296D01*
X61031190Y46644010D01*
X60983571Y46739248D01*
X60935952Y46786867D01*
X60840714Y46834486D01*
X60697857Y46834486D01*
X60602619Y46786867D01*
X60555000Y46739248D01*
X60507380Y46644010D01*
X60507380Y46358296D01*
X60555000Y46263058D01*
X60602619Y46215439D01*
X60697857Y46167820D01*
X60840714Y46167820D01*
X60174047Y46834486D02*
X59935952Y46167820D01*
X59697857Y46834486D01*
X58935952Y46215439D02*
X59031190Y46167820D01*
X59221666Y46167820D01*
X59316904Y46215439D01*
X59364523Y46310677D01*
X59364523Y46691629D01*
X59316904Y46786867D01*
X59221666Y46834486D01*
X59031190Y46834486D01*
X58935952Y46786867D01*
X58888333Y46691629D01*
X58888333Y46596391D01*
X59364523Y46501153D01*
X57697857Y46167820D02*
X57697857Y47167820D01*
X57697857Y46786867D02*
X57602619Y46834486D01*
X57412142Y46834486D01*
X57316904Y46786867D01*
X57269285Y46739248D01*
X57221666Y46644010D01*
X57221666Y46358296D01*
X57269285Y46263058D01*
X57316904Y46215439D01*
X57412142Y46167820D01*
X57602619Y46167820D01*
X57697857Y46215439D01*
X56650238Y46167820D02*
X56745476Y46215439D01*
X56793095Y46263058D01*
X56840714Y46358296D01*
X56840714Y46644010D01*
X56793095Y46739248D01*
X56745476Y46786867D01*
X56650238Y46834486D01*
X56507380Y46834486D01*
X56412142Y46786867D01*
X56364523Y46739248D01*
X56316904Y46644010D01*
X56316904Y46358296D01*
X56364523Y46263058D01*
X56412142Y46215439D01*
X56507380Y46167820D01*
X56650238Y46167820D01*
X55459761Y46167820D02*
X55459761Y46691629D01*
X55507380Y46786867D01*
X55602619Y46834486D01*
X55793095Y46834486D01*
X55888333Y46786867D01*
X55459761Y46215439D02*
X55555000Y46167820D01*
X55793095Y46167820D01*
X55888333Y46215439D01*
X55935952Y46310677D01*
X55935952Y46405915D01*
X55888333Y46501153D01*
X55793095Y46548772D01*
X55555000Y46548772D01*
X55459761Y46596391D01*
X54983571Y46167820D02*
X54983571Y46834486D01*
X54983571Y46644010D02*
X54935952Y46739248D01*
X54888333Y46786867D01*
X54793095Y46834486D01*
X54697857Y46834486D01*
X53935952Y46167820D02*
X53935952Y47167820D01*
X53935952Y46215439D02*
X54031190Y46167820D01*
X54221666Y46167820D01*
X54316904Y46215439D01*
X54364523Y46263058D01*
X54412142Y46358296D01*
X54412142Y46644010D01*
X54364523Y46739248D01*
X54316904Y46786867D01*
X54221666Y46834486D01*
X54031190Y46834486D01*
X53935952Y46786867D01*
X65364523Y45184486D02*
X64983571Y45184486D01*
X65221666Y44517820D02*
X65221666Y45374962D01*
X65174047Y45470200D01*
X65078809Y45517820D01*
X64983571Y45517820D01*
X64650238Y44517820D02*
X64650238Y45184486D01*
X64650238Y44994010D02*
X64602619Y45089248D01*
X64555000Y45136867D01*
X64459761Y45184486D01*
X64364523Y45184486D01*
X63888333Y44517820D02*
X63983571Y44565439D01*
X64031190Y44613058D01*
X64078809Y44708296D01*
X64078809Y44994010D01*
X64031190Y45089248D01*
X63983571Y45136867D01*
X63888333Y45184486D01*
X63745476Y45184486D01*
X63650238Y45136867D01*
X63602619Y45089248D01*
X63555000Y44994010D01*
X63555000Y44708296D01*
X63602619Y44613058D01*
X63650238Y44565439D01*
X63745476Y44517820D01*
X63888333Y44517820D01*
X63126428Y44517820D02*
X63126428Y45184486D01*
X63126428Y45089248D02*
X63078809Y45136867D01*
X62983571Y45184486D01*
X62840714Y45184486D01*
X62745476Y45136867D01*
X62697857Y45041629D01*
X62697857Y44517820D01*
X62697857Y45041629D02*
X62650238Y45136867D01*
X62555000Y45184486D01*
X62412142Y45184486D01*
X62316904Y45136867D01*
X62269285Y45041629D01*
X62269285Y44517820D01*
X61078809Y44565439D02*
X60983571Y44517820D01*
X60793095Y44517820D01*
X60697857Y44565439D01*
X60650238Y44660677D01*
X60650238Y44708296D01*
X60697857Y44803534D01*
X60793095Y44851153D01*
X60935952Y44851153D01*
X61031190Y44898772D01*
X61078809Y44994010D01*
X61078809Y45041629D01*
X61031190Y45136867D01*
X60935952Y45184486D01*
X60793095Y45184486D01*
X60697857Y45136867D01*
X60316904Y45184486D02*
X60078809Y44517820D01*
X59840714Y45184486D02*
X60078809Y44517820D01*
X60174047Y44279724D01*
X60221666Y44232105D01*
X60316904Y44184486D01*
X59507380Y44565439D02*
X59412142Y44517820D01*
X59221666Y44517820D01*
X59126428Y44565439D01*
X59078809Y44660677D01*
X59078809Y44708296D01*
X59126428Y44803534D01*
X59221666Y44851153D01*
X59364523Y44851153D01*
X59459761Y44898772D01*
X59507380Y44994010D01*
X59507380Y45041629D01*
X59459761Y45136867D01*
X59364523Y45184486D01*
X59221666Y45184486D01*
X59126428Y45136867D01*
X58793095Y45184486D02*
X58412142Y45184486D01*
X58650238Y45517820D02*
X58650238Y44660677D01*
X58602619Y44565439D01*
X58507380Y44517820D01*
X58412142Y44517820D01*
X57697857Y44565439D02*
X57793095Y44517820D01*
X57983571Y44517820D01*
X58078809Y44565439D01*
X58126428Y44660677D01*
X58126428Y45041629D01*
X58078809Y45136867D01*
X57983571Y45184486D01*
X57793095Y45184486D01*
X57697857Y45136867D01*
X57650238Y45041629D01*
X57650238Y44946391D01*
X58126428Y44851153D01*
X57221666Y44517820D02*
X57221666Y45184486D01*
X57221666Y45089248D02*
X57174047Y45136867D01*
X57078809Y45184486D01*
X56935952Y45184486D01*
X56840714Y45136867D01*
X56793095Y45041629D01*
X56793095Y44517820D01*
X56793095Y45041629D02*
X56745476Y45136867D01*
X56650238Y45184486D01*
X56507380Y45184486D01*
X56412142Y45136867D01*
X56364523Y45041629D01*
X56364523Y44517820D01*
X54697857Y44517820D02*
X54697857Y45041629D01*
X54745476Y45136867D01*
X54840714Y45184486D01*
X55031190Y45184486D01*
X55126428Y45136867D01*
X54697857Y44565439D02*
X54793095Y44517820D01*
X55031190Y44517820D01*
X55126428Y44565439D01*
X55174047Y44660677D01*
X55174047Y44755915D01*
X55126428Y44851153D01*
X55031190Y44898772D01*
X54793095Y44898772D01*
X54697857Y44946391D01*
X54221666Y45184486D02*
X54221666Y44517820D01*
X54221666Y45089248D02*
X54174047Y45136867D01*
X54078809Y45184486D01*
X53935952Y45184486D01*
X53840714Y45136867D01*
X53793095Y45041629D01*
X53793095Y44517820D01*
X52888333Y44517820D02*
X52888333Y45517820D01*
X52888333Y44565439D02*
X52983571Y44517820D01*
X53174047Y44517820D01*
X53269285Y44565439D01*
X53316904Y44613058D01*
X53364523Y44708296D01*
X53364523Y44994010D01*
X53316904Y45089248D01*
X53269285Y45136867D01*
X53174047Y45184486D01*
X52983571Y45184486D01*
X52888333Y45136867D01*
X65650238Y42867820D02*
X65650238Y43534486D01*
X65650238Y43867820D02*
X65697857Y43820200D01*
X65650238Y43772581D01*
X65602619Y43820200D01*
X65650238Y43867820D01*
X65650238Y43772581D01*
X65174047Y43534486D02*
X65174047Y42867820D01*
X65174047Y43439248D02*
X65126428Y43486867D01*
X65031190Y43534486D01*
X64888333Y43534486D01*
X64793095Y43486867D01*
X64745476Y43391629D01*
X64745476Y42867820D01*
X64316904Y42915439D02*
X64221666Y42867820D01*
X64031190Y42867820D01*
X63935952Y42915439D01*
X63888333Y43010677D01*
X63888333Y43058296D01*
X63935952Y43153534D01*
X64031190Y43201153D01*
X64174047Y43201153D01*
X64269285Y43248772D01*
X64316904Y43344010D01*
X64316904Y43391629D01*
X64269285Y43486867D01*
X64174047Y43534486D01*
X64031190Y43534486D01*
X63935952Y43486867D01*
X63602619Y43534486D02*
X63221666Y43534486D01*
X63459761Y43867820D02*
X63459761Y43010677D01*
X63412142Y42915439D01*
X63316904Y42867820D01*
X63221666Y42867820D01*
X62459761Y42867820D02*
X62459761Y43391629D01*
X62507380Y43486867D01*
X62602619Y43534486D01*
X62793095Y43534486D01*
X62888333Y43486867D01*
X62459761Y42915439D02*
X62555000Y42867820D01*
X62793095Y42867820D01*
X62888333Y42915439D01*
X62935952Y43010677D01*
X62935952Y43105915D01*
X62888333Y43201153D01*
X62793095Y43248772D01*
X62555000Y43248772D01*
X62459761Y43296391D01*
X61840714Y42867820D02*
X61935952Y42915439D01*
X61983571Y43010677D01*
X61983571Y43867820D01*
X61316904Y42867820D02*
X61412142Y42915439D01*
X61459761Y43010677D01*
X61459761Y43867820D01*
X59888333Y43867820D02*
X59888333Y43153534D01*
X59935952Y43010677D01*
X60031190Y42915439D01*
X60174047Y42867820D01*
X60269285Y42867820D01*
X59412142Y42867820D02*
X59412142Y43867820D01*
X59031190Y43867820D01*
X58935952Y43820200D01*
X58888333Y43772581D01*
X58840714Y43677343D01*
X58840714Y43534486D01*
X58888333Y43439248D01*
X58935952Y43391629D01*
X59031190Y43344010D01*
X59412142Y43344010D01*
X57888333Y42867820D02*
X58459761Y42867820D01*
X58174047Y42867820D02*
X58174047Y43867820D01*
X58269285Y43724962D01*
X58364523Y43629724D01*
X58459761Y43582105D01*
X56697857Y42867820D02*
X56697857Y43867820D01*
X56697857Y43486867D02*
X56602619Y43534486D01*
X56412142Y43534486D01*
X56316904Y43486867D01*
X56269285Y43439248D01*
X56221666Y43344010D01*
X56221666Y43058296D01*
X56269285Y42963058D01*
X56316904Y42915439D01*
X56412142Y42867820D01*
X56602619Y42867820D01*
X56697857Y42915439D01*
X55412142Y42915439D02*
X55507380Y42867820D01*
X55697857Y42867820D01*
X55793095Y42915439D01*
X55840714Y43010677D01*
X55840714Y43391629D01*
X55793095Y43486867D01*
X55697857Y43534486D01*
X55507380Y43534486D01*
X55412142Y43486867D01*
X55364523Y43391629D01*
X55364523Y43296391D01*
X55840714Y43201153D01*
X55078809Y43534486D02*
X54697857Y43534486D01*
X54935952Y42867820D02*
X54935952Y43724962D01*
X54888333Y43820200D01*
X54793095Y43867820D01*
X54697857Y43867820D01*
X54221666Y42867820D02*
X54316904Y42915439D01*
X54364523Y42963058D01*
X54412142Y43058296D01*
X54412142Y43344010D01*
X54364523Y43439248D01*
X54316904Y43486867D01*
X54221666Y43534486D01*
X54078809Y43534486D01*
X53983571Y43486867D01*
X53935952Y43439248D01*
X53888333Y43344010D01*
X53888333Y43058296D01*
X53935952Y42963058D01*
X53983571Y42915439D01*
X54078809Y42867820D01*
X54221666Y42867820D01*
X53459761Y42867820D02*
X53459761Y43534486D01*
X53459761Y43344010D02*
X53412142Y43439248D01*
X53364523Y43486867D01*
X53269285Y43534486D01*
X53174047Y43534486D01*
X52459761Y42915439D02*
X52555000Y42867820D01*
X52745476Y42867820D01*
X52840714Y42915439D01*
X52888333Y43010677D01*
X52888333Y43391629D01*
X52840714Y43486867D01*
X52745476Y43534486D01*
X52555000Y43534486D01*
X52459761Y43486867D01*
X52412142Y43391629D01*
X52412142Y43296391D01*
X52888333Y43201153D01*
X65031190Y41217820D02*
X65126428Y41265439D01*
X65174047Y41360677D01*
X65174047Y42217820D01*
X64507380Y41217820D02*
X64602619Y41265439D01*
X64650238Y41313058D01*
X64697857Y41408296D01*
X64697857Y41694010D01*
X64650238Y41789248D01*
X64602619Y41836867D01*
X64507380Y41884486D01*
X64364523Y41884486D01*
X64269285Y41836867D01*
X64221666Y41789248D01*
X64174047Y41694010D01*
X64174047Y41408296D01*
X64221666Y41313058D01*
X64269285Y41265439D01*
X64364523Y41217820D01*
X64507380Y41217820D01*
X63316904Y41217820D02*
X63316904Y41741629D01*
X63364523Y41836867D01*
X63459761Y41884486D01*
X63650238Y41884486D01*
X63745476Y41836867D01*
X63316904Y41265439D02*
X63412142Y41217820D01*
X63650238Y41217820D01*
X63745476Y41265439D01*
X63793095Y41360677D01*
X63793095Y41455915D01*
X63745476Y41551153D01*
X63650238Y41598772D01*
X63412142Y41598772D01*
X63316904Y41646391D01*
X62412142Y41217820D02*
X62412142Y42217820D01*
X62412142Y41265439D02*
X62507380Y41217820D01*
X62697857Y41217820D01*
X62793095Y41265439D01*
X62840714Y41313058D01*
X62888333Y41408296D01*
X62888333Y41694010D01*
X62840714Y41789248D01*
X62793095Y41836867D01*
X62697857Y41884486D01*
X62507380Y41884486D01*
X62412142Y41836867D01*
X61935952Y41217820D02*
X61935952Y41884486D01*
X61935952Y42217820D02*
X61983571Y42170200D01*
X61935952Y42122581D01*
X61888333Y42170200D01*
X61935952Y42217820D01*
X61935952Y42122581D01*
X61459761Y41884486D02*
X61459761Y41217820D01*
X61459761Y41789248D02*
X61412142Y41836867D01*
X61316904Y41884486D01*
X61174047Y41884486D01*
X61078809Y41836867D01*
X61031190Y41741629D01*
X61031190Y41217820D01*
X60126428Y41884486D02*
X60126428Y41074962D01*
X60174047Y40979724D01*
X60221666Y40932105D01*
X60316904Y40884486D01*
X60459761Y40884486D01*
X60555000Y40932105D01*
X60126428Y41265439D02*
X60221666Y41217820D01*
X60412142Y41217820D01*
X60507380Y41265439D01*
X60555000Y41313058D01*
X60602619Y41408296D01*
X60602619Y41694010D01*
X60555000Y41789248D01*
X60507380Y41836867D01*
X60412142Y41884486D01*
X60221666Y41884486D01*
X60126428Y41836867D01*
X59031190Y41884486D02*
X58650238Y41884486D01*
X58888333Y41217820D02*
X58888333Y42074962D01*
X58840714Y42170200D01*
X58745476Y42217820D01*
X58650238Y42217820D01*
X58316904Y41217820D02*
X58316904Y41884486D01*
X58316904Y42217820D02*
X58364523Y42170200D01*
X58316904Y42122581D01*
X58269285Y42170200D01*
X58316904Y42217820D01*
X58316904Y42122581D01*
X57840714Y41217820D02*
X57840714Y41884486D01*
X57840714Y41694010D02*
X57793095Y41789248D01*
X57745476Y41836867D01*
X57650238Y41884486D01*
X57555000Y41884486D01*
X57221666Y41217820D02*
X57221666Y41884486D01*
X57221666Y41789248D02*
X57174047Y41836867D01*
X57078809Y41884486D01*
X56935952Y41884486D01*
X56840714Y41836867D01*
X56793095Y41741629D01*
X56793095Y41217820D01*
X56793095Y41741629D02*
X56745476Y41836867D01*
X56650238Y41884486D01*
X56507380Y41884486D01*
X56412142Y41836867D01*
X56364523Y41741629D01*
X56364523Y41217820D01*
X55983571Y41884486D02*
X55793095Y41217820D01*
X55602619Y41694010D01*
X55412142Y41217820D01*
X55221666Y41884486D01*
X54412142Y41217820D02*
X54412142Y41741629D01*
X54459761Y41836867D01*
X54555000Y41884486D01*
X54745476Y41884486D01*
X54840714Y41836867D01*
X54412142Y41265439D02*
X54507380Y41217820D01*
X54745476Y41217820D01*
X54840714Y41265439D01*
X54888333Y41360677D01*
X54888333Y41455915D01*
X54840714Y41551153D01*
X54745476Y41598772D01*
X54507380Y41598772D01*
X54412142Y41646391D01*
X53935952Y41217820D02*
X53935952Y41884486D01*
X53935952Y41694010D02*
X53888333Y41789248D01*
X53840714Y41836867D01*
X53745476Y41884486D01*
X53650238Y41884486D01*
X52935952Y41265439D02*
X53031190Y41217820D01*
X53221666Y41217820D01*
X53316904Y41265439D01*
X53364523Y41360677D01*
X53364523Y41741629D01*
X53316904Y41836867D01*
X53221666Y41884486D01*
X53031190Y41884486D01*
X52935952Y41836867D01*
X52888333Y41741629D01*
X52888333Y41646391D01*
X53364523Y41551153D01*
X62840714Y36452820D02*
X63174047Y36929010D01*
X63412142Y36452820D02*
X63412142Y37452820D01*
X63031190Y37452820D01*
X62935952Y37405200D01*
X62888333Y37357581D01*
X62840714Y37262343D01*
X62840714Y37119486D01*
X62888333Y37024248D01*
X62935952Y36976629D01*
X63031190Y36929010D01*
X63412142Y36929010D01*
X62031190Y36500439D02*
X62126428Y36452820D01*
X62316904Y36452820D01*
X62412142Y36500439D01*
X62459761Y36595677D01*
X62459761Y36976629D01*
X62412142Y37071867D01*
X62316904Y37119486D01*
X62126428Y37119486D01*
X62031190Y37071867D01*
X61983571Y36976629D01*
X61983571Y36881391D01*
X62459761Y36786153D01*
X61555000Y36452820D02*
X61555000Y37119486D01*
X61555000Y37024248D02*
X61507380Y37071867D01*
X61412142Y37119486D01*
X61269285Y37119486D01*
X61174047Y37071867D01*
X61126428Y36976629D01*
X61126428Y36452820D01*
X61126428Y36976629D02*
X61078809Y37071867D01*
X60983571Y37119486D01*
X60840714Y37119486D01*
X60745476Y37071867D01*
X60697857Y36976629D01*
X60697857Y36452820D01*
X60078809Y36452820D02*
X60174047Y36500439D01*
X60221666Y36548058D01*
X60269285Y36643296D01*
X60269285Y36929010D01*
X60221666Y37024248D01*
X60174047Y37071867D01*
X60078809Y37119486D01*
X59935952Y37119486D01*
X59840714Y37071867D01*
X59793095Y37024248D01*
X59745476Y36929010D01*
X59745476Y36643296D01*
X59793095Y36548058D01*
X59840714Y36500439D01*
X59935952Y36452820D01*
X60078809Y36452820D01*
X59412142Y37119486D02*
X59174047Y36452820D01*
X58935952Y37119486D01*
X58174047Y36500439D02*
X58269285Y36452820D01*
X58459761Y36452820D01*
X58555000Y36500439D01*
X58602619Y36595677D01*
X58602619Y36976629D01*
X58555000Y37071867D01*
X58459761Y37119486D01*
X58269285Y37119486D01*
X58174047Y37071867D01*
X58126428Y36976629D01*
X58126428Y36881391D01*
X58602619Y36786153D01*
X56650238Y37452820D02*
X56650238Y36738534D01*
X56697857Y36595677D01*
X56793095Y36500439D01*
X56935952Y36452820D01*
X57031190Y36452820D01*
X56174047Y36452820D02*
X56174047Y37452820D01*
X55793095Y37452820D01*
X55697857Y37405200D01*
X55650238Y37357581D01*
X55602619Y37262343D01*
X55602619Y37119486D01*
X55650238Y37024248D01*
X55697857Y36976629D01*
X55793095Y36929010D01*
X56174047Y36929010D01*
X54650238Y36452820D02*
X55221666Y36452820D01*
X54935952Y36452820D02*
X54935952Y37452820D01*
X55031190Y37309962D01*
X55126428Y37214724D01*
X55221666Y37167105D01*
X63721666Y34802820D02*
X63721666Y35802820D01*
X63721666Y34850439D02*
X63816904Y34802820D01*
X64007380Y34802820D01*
X64102619Y34850439D01*
X64150238Y34898058D01*
X64197857Y34993296D01*
X64197857Y35279010D01*
X64150238Y35374248D01*
X64102619Y35421867D01*
X64007380Y35469486D01*
X63816904Y35469486D01*
X63721666Y35421867D01*
X62816904Y35469486D02*
X62816904Y34802820D01*
X63245476Y35469486D02*
X63245476Y34945677D01*
X63197857Y34850439D01*
X63102619Y34802820D01*
X62959761Y34802820D01*
X62864523Y34850439D01*
X62816904Y34898058D01*
X62340714Y34802820D02*
X62340714Y35469486D01*
X62340714Y35279010D02*
X62293095Y35374248D01*
X62245476Y35421867D01*
X62150238Y35469486D01*
X62055000Y35469486D01*
X61721666Y34802820D02*
X61721666Y35469486D01*
X61721666Y35802820D02*
X61769285Y35755200D01*
X61721666Y35707581D01*
X61674047Y35755200D01*
X61721666Y35802820D01*
X61721666Y35707581D01*
X61245476Y35469486D02*
X61245476Y34802820D01*
X61245476Y35374248D02*
X61197857Y35421867D01*
X61102619Y35469486D01*
X60959761Y35469486D01*
X60864523Y35421867D01*
X60816904Y35326629D01*
X60816904Y34802820D01*
X59912142Y35469486D02*
X59912142Y34659962D01*
X59959761Y34564724D01*
X60007380Y34517105D01*
X60102619Y34469486D01*
X60245476Y34469486D01*
X60340714Y34517105D01*
X59912142Y34850439D02*
X60007380Y34802820D01*
X60197857Y34802820D01*
X60293095Y34850439D01*
X60340714Y34898058D01*
X60388333Y34993296D01*
X60388333Y35279010D01*
X60340714Y35374248D01*
X60293095Y35421867D01*
X60197857Y35469486D01*
X60007380Y35469486D01*
X59912142Y35421867D01*
X58674047Y35469486D02*
X58674047Y34802820D01*
X58674047Y35374248D02*
X58626428Y35421867D01*
X58531190Y35469486D01*
X58388333Y35469486D01*
X58293095Y35421867D01*
X58245476Y35326629D01*
X58245476Y34802820D01*
X57626428Y34802820D02*
X57721666Y34850439D01*
X57769285Y34898058D01*
X57816904Y34993296D01*
X57816904Y35279010D01*
X57769285Y35374248D01*
X57721666Y35421867D01*
X57626428Y35469486D01*
X57483571Y35469486D01*
X57388333Y35421867D01*
X57340714Y35374248D01*
X57293095Y35279010D01*
X57293095Y34993296D01*
X57340714Y34898058D01*
X57388333Y34850439D01*
X57483571Y34802820D01*
X57626428Y34802820D01*
X56864523Y34802820D02*
X56864523Y35469486D01*
X56864523Y35279010D02*
X56816904Y35374248D01*
X56769285Y35421867D01*
X56674047Y35469486D01*
X56578809Y35469486D01*
X56245476Y34802820D02*
X56245476Y35469486D01*
X56245476Y35374248D02*
X56197857Y35421867D01*
X56102619Y35469486D01*
X55959761Y35469486D01*
X55864523Y35421867D01*
X55816904Y35326629D01*
X55816904Y34802820D01*
X55816904Y35326629D02*
X55769285Y35421867D01*
X55674047Y35469486D01*
X55531190Y35469486D01*
X55435952Y35421867D01*
X55388333Y35326629D01*
X55388333Y34802820D01*
X54483571Y34802820D02*
X54483571Y35326629D01*
X54531190Y35421867D01*
X54626428Y35469486D01*
X54816904Y35469486D01*
X54912142Y35421867D01*
X54483571Y34850439D02*
X54578809Y34802820D01*
X54816904Y34802820D01*
X54912142Y34850439D01*
X54959761Y34945677D01*
X54959761Y35040915D01*
X54912142Y35136153D01*
X54816904Y35183772D01*
X54578809Y35183772D01*
X54483571Y35231391D01*
X53864523Y34802820D02*
X53959761Y34850439D01*
X54007380Y34945677D01*
X54007380Y35802820D01*
X62197857Y33152820D02*
X62293095Y33200439D01*
X62340714Y33248058D01*
X62388333Y33343296D01*
X62388333Y33629010D01*
X62340714Y33724248D01*
X62293095Y33771867D01*
X62197857Y33819486D01*
X62055000Y33819486D01*
X61959761Y33771867D01*
X61912142Y33724248D01*
X61864523Y33629010D01*
X61864523Y33343296D01*
X61912142Y33248058D01*
X61959761Y33200439D01*
X62055000Y33152820D01*
X62197857Y33152820D01*
X61435952Y33819486D02*
X61435952Y32819486D01*
X61435952Y33771867D02*
X61340714Y33819486D01*
X61150238Y33819486D01*
X61055000Y33771867D01*
X61007380Y33724248D01*
X60959761Y33629010D01*
X60959761Y33343296D01*
X61007380Y33248058D01*
X61055000Y33200439D01*
X61150238Y33152820D01*
X61340714Y33152820D01*
X61435952Y33200439D01*
X60150238Y33200439D02*
X60245476Y33152820D01*
X60435952Y33152820D01*
X60531190Y33200439D01*
X60578809Y33295677D01*
X60578809Y33676629D01*
X60531190Y33771867D01*
X60435952Y33819486D01*
X60245476Y33819486D01*
X60150238Y33771867D01*
X60102619Y33676629D01*
X60102619Y33581391D01*
X60578809Y33486153D01*
X59674047Y33152820D02*
X59674047Y33819486D01*
X59674047Y33629010D02*
X59626428Y33724248D01*
X59578809Y33771867D01*
X59483571Y33819486D01*
X59388333Y33819486D01*
X58626428Y33152820D02*
X58626428Y33676629D01*
X58674047Y33771867D01*
X58769285Y33819486D01*
X58959761Y33819486D01*
X59055000Y33771867D01*
X58626428Y33200439D02*
X58721666Y33152820D01*
X58959761Y33152820D01*
X59055000Y33200439D01*
X59102619Y33295677D01*
X59102619Y33390915D01*
X59055000Y33486153D01*
X58959761Y33533772D01*
X58721666Y33533772D01*
X58626428Y33581391D01*
X58293095Y33819486D02*
X57912142Y33819486D01*
X58150238Y34152820D02*
X58150238Y33295677D01*
X58102619Y33200439D01*
X58007380Y33152820D01*
X57912142Y33152820D01*
X57578809Y33152820D02*
X57578809Y33819486D01*
X57578809Y34152820D02*
X57626428Y34105200D01*
X57578809Y34057581D01*
X57531190Y34105200D01*
X57578809Y34152820D01*
X57578809Y34057581D01*
X56959761Y33152820D02*
X57055000Y33200439D01*
X57102619Y33248058D01*
X57150238Y33343296D01*
X57150238Y33629010D01*
X57102619Y33724248D01*
X57055000Y33771867D01*
X56959761Y33819486D01*
X56816904Y33819486D01*
X56721666Y33771867D01*
X56674047Y33724248D01*
X56626428Y33629010D01*
X56626428Y33343296D01*
X56674047Y33248058D01*
X56721666Y33200439D01*
X56816904Y33152820D01*
X56959761Y33152820D01*
X56197857Y33819486D02*
X56197857Y33152820D01*
X56197857Y33724248D02*
X56150238Y33771867D01*
X56055000Y33819486D01*
X55912142Y33819486D01*
X55816904Y33771867D01*
X55769285Y33676629D01*
X55769285Y33152820D01*
D11*
X32989761Y46560015D02*
X33413095Y46560015D01*
X33413095Y45894777D02*
X33413095Y47164777D01*
X32808333Y47164777D01*
X31780238Y45894777D02*
X31780238Y46560015D01*
X31840714Y46680967D01*
X31961666Y46741443D01*
X32203571Y46741443D01*
X32324523Y46680967D01*
X31780238Y45955253D02*
X31901190Y45894777D01*
X32203571Y45894777D01*
X32324523Y45955253D01*
X32385000Y46076205D01*
X32385000Y46197158D01*
X32324523Y46318110D01*
X32203571Y46378586D01*
X31901190Y46378586D01*
X31780238Y46439062D01*
X31175476Y45894777D02*
X31175476Y47164777D01*
X31175476Y46680967D02*
X31054523Y46741443D01*
X30812619Y46741443D01*
X30691666Y46680967D01*
X30631190Y46620491D01*
X30570714Y46499539D01*
X30570714Y46136681D01*
X30631190Y46015729D01*
X30691666Y45955253D01*
X30812619Y45894777D01*
X31054523Y45894777D01*
X31175476Y45955253D01*
X29361190Y47104300D02*
X29482142Y47164777D01*
X29663571Y47164777D01*
X29845000Y47104300D01*
X29965952Y46983348D01*
X30026428Y46862396D01*
X30086904Y46620491D01*
X30086904Y46439062D01*
X30026428Y46197158D01*
X29965952Y46076205D01*
X29845000Y45955253D01*
X29663571Y45894777D01*
X29542619Y45894777D01*
X29361190Y45955253D01*
X29300714Y46015729D01*
X29300714Y46439062D01*
X29542619Y46439062D01*
X28151666Y45894777D02*
X28756428Y45894777D01*
X28756428Y47164777D01*
X26942142Y47164777D02*
X26518809Y45894777D01*
X26095476Y47164777D01*
X25006904Y47104300D02*
X25127857Y47164777D01*
X25309285Y47164777D01*
X25490714Y47104300D01*
X25611666Y46983348D01*
X25672142Y46862396D01*
X25732619Y46620491D01*
X25732619Y46439062D01*
X25672142Y46197158D01*
X25611666Y46076205D01*
X25490714Y45955253D01*
X25309285Y45894777D01*
X25188333Y45894777D01*
X25006904Y45955253D01*
X24946428Y46015729D01*
X24946428Y46439062D01*
X25188333Y46439062D01*
X24462619Y46257634D02*
X23857857Y46257634D01*
X24583571Y45894777D02*
X24160238Y47164777D01*
X23736904Y45894777D01*
X22527380Y47164777D02*
X21801666Y47164777D01*
X22164523Y45894777D02*
X22164523Y47164777D01*
X20894523Y45955253D02*
X21015476Y45894777D01*
X21257380Y45894777D01*
X21378333Y45955253D01*
X21438809Y46076205D01*
X21438809Y46560015D01*
X21378333Y46680967D01*
X21257380Y46741443D01*
X21015476Y46741443D01*
X20894523Y46680967D01*
X20834047Y46560015D01*
X20834047Y46439062D01*
X21438809Y46318110D01*
X20289761Y45894777D02*
X20289761Y46741443D01*
X20289761Y46499539D02*
X20229285Y46620491D01*
X20168809Y46680967D01*
X20047857Y46741443D01*
X19926904Y46741443D01*
X19503571Y45894777D02*
X19503571Y46741443D01*
X19503571Y46620491D02*
X19443095Y46680967D01*
X19322142Y46741443D01*
X19140714Y46741443D01*
X19019761Y46680967D01*
X18959285Y46560015D01*
X18959285Y45894777D01*
X18959285Y46560015D02*
X18898809Y46680967D01*
X18777857Y46741443D01*
X18596428Y46741443D01*
X18475476Y46680967D01*
X18415000Y46560015D01*
X18415000Y45894777D01*
X17810238Y45894777D02*
X17810238Y46741443D01*
X17810238Y47164777D02*
X17870714Y47104300D01*
X17810238Y47043824D01*
X17749761Y47104300D01*
X17810238Y47164777D01*
X17810238Y47043824D01*
X17205476Y46741443D02*
X17205476Y45894777D01*
X17205476Y46620491D02*
X17145000Y46680967D01*
X17024047Y46741443D01*
X16842619Y46741443D01*
X16721666Y46680967D01*
X16661190Y46560015D01*
X16661190Y45894777D01*
X15512142Y45894777D02*
X15512142Y46560015D01*
X15572619Y46680967D01*
X15693571Y46741443D01*
X15935476Y46741443D01*
X16056428Y46680967D01*
X15512142Y45955253D02*
X15633095Y45894777D01*
X15935476Y45894777D01*
X16056428Y45955253D01*
X16116904Y46076205D01*
X16116904Y46197158D01*
X16056428Y46318110D01*
X15935476Y46378586D01*
X15633095Y46378586D01*
X15512142Y46439062D01*
X14725952Y45894777D02*
X14846904Y45955253D01*
X14907380Y46076205D01*
X14907380Y47164777D01*
X29391428Y43786577D02*
X29391428Y45056577D01*
X28907619Y45056577D01*
X28786666Y44996100D01*
X28726190Y44935624D01*
X28665714Y44814672D01*
X28665714Y44633243D01*
X28726190Y44512291D01*
X28786666Y44451815D01*
X28907619Y44391339D01*
X29391428Y44391339D01*
X28121428Y43786577D02*
X28121428Y45056577D01*
X27819047Y45056577D01*
X27637619Y44996100D01*
X27516666Y44875148D01*
X27456190Y44754196D01*
X27395714Y44512291D01*
X27395714Y44330862D01*
X27456190Y44088958D01*
X27516666Y43968005D01*
X27637619Y43847053D01*
X27819047Y43786577D01*
X28121428Y43786577D01*
X26186190Y43786577D02*
X26911904Y43786577D01*
X26549047Y43786577D02*
X26549047Y45056577D01*
X26670000Y44875148D01*
X26790952Y44754196D01*
X26911904Y44693720D01*
X25400000Y45056577D02*
X25279047Y45056577D01*
X25158095Y44996100D01*
X25097619Y44935624D01*
X25037142Y44814672D01*
X24976666Y44572767D01*
X24976666Y44270386D01*
X25037142Y44028481D01*
X25097619Y43907529D01*
X25158095Y43847053D01*
X25279047Y43786577D01*
X25400000Y43786577D01*
X25520952Y43847053D01*
X25581428Y43907529D01*
X25641904Y44028481D01*
X25702380Y44270386D01*
X25702380Y44572767D01*
X25641904Y44814672D01*
X25581428Y44935624D01*
X25520952Y44996100D01*
X25400000Y45056577D01*
X24553333Y45056577D02*
X23767142Y45056577D01*
X24190476Y44572767D01*
X24009047Y44572767D01*
X23888095Y44512291D01*
X23827619Y44451815D01*
X23767142Y44330862D01*
X23767142Y44028481D01*
X23827619Y43907529D01*
X23888095Y43847053D01*
X24009047Y43786577D01*
X24371904Y43786577D01*
X24492857Y43847053D01*
X24553333Y43907529D01*
X22376190Y44633243D02*
X22073809Y43786577D01*
X21771428Y44633243D01*
X21045714Y45056577D02*
X20924761Y45056577D01*
X20803809Y44996100D01*
X20743333Y44935624D01*
X20682857Y44814672D01*
X20622380Y44572767D01*
X20622380Y44270386D01*
X20682857Y44028481D01*
X20743333Y43907529D01*
X20803809Y43847053D01*
X20924761Y43786577D01*
X21045714Y43786577D01*
X21166666Y43847053D01*
X21227142Y43907529D01*
X21287619Y44028481D01*
X21348095Y44270386D01*
X21348095Y44572767D01*
X21287619Y44814672D01*
X21227142Y44935624D01*
X21166666Y44996100D01*
X21045714Y45056577D01*
X20078095Y43907529D02*
X20017619Y43847053D01*
X20078095Y43786577D01*
X20138571Y43847053D01*
X20078095Y43907529D01*
X20078095Y43786577D01*
X19412857Y43786577D02*
X19170952Y43786577D01*
X19050000Y43847053D01*
X18989523Y43907529D01*
X18868571Y44088958D01*
X18808095Y44330862D01*
X18808095Y44814672D01*
X18868571Y44935624D01*
X18929047Y44996100D01*
X19050000Y45056577D01*
X19291904Y45056577D01*
X19412857Y44996100D01*
X19473333Y44935624D01*
X19533809Y44814672D01*
X19533809Y44512291D01*
X19473333Y44391339D01*
X19412857Y44330862D01*
X19291904Y44270386D01*
X19050000Y44270386D01*
X18929047Y44330862D01*
X18868571Y44391339D01*
X18808095Y44512291D01*
M02*
