M48
; DRILL file {KiCad (5.1.6)-1} date 11/25/20 00:21:09
; FORMAT={-:-/ absolute / inch / decimal}
; #@! TF.CreationDate,2020-11-25T00:21:09-08:00
; #@! TF.GenerationSoftware,Kicad,Pcbnew,(5.1.6)-1
; #@! TF.FileFunction,Plated,1,2,PTH
FMAT,2
INCH
T1C0.0157
T2C0.0236
T3C0.0295
T4C0.0315
T5C0.0382
T6C0.0390
T7C0.0394
T8C0.0512
T9C0.0933
T10C0.1260
%
G90
G05
T1
X1.0Y1.313
X1.225Y0.738
X1.5Y0.888
X1.55Y1.213
X1.6Y1.313
X1.625Y1.238
X1.925Y1.438
X1.925Y1.313
X1.975Y0.813
X2.5Y0.413
X2.575Y1.763
X2.575Y1.713
X2.75Y1.263
T2
X0.51Y0.493
X0.775Y0.563
X0.975Y0.563
X1.0Y1.413
X1.1Y0.863
X1.535Y0.7755
X1.805Y1.638
X1.82Y1.503
X1.875Y0.738
X1.8875Y0.848
X2.0875Y1.913
X2.0875Y1.563
X2.0875Y1.213
X2.5875Y1.913
X2.5875Y1.563
X2.5875Y1.213
X2.675Y0.563
X2.775Y1.688
X2.825Y0.413
X2.86Y1.603
T3
X0.825Y0.463
X0.875Y0.413
X0.925Y0.463
X0.825Y0.713
X0.875Y0.663
X0.925Y0.713
T4
X2.2Y0.4114
X2.2Y0.313
X2.95Y0.563
X3.25Y0.563
X2.15Y0.863
X2.15Y0.7843
X1.425Y1.638
X1.725Y1.638
X1.6266Y1.513
X1.725Y1.513
X1.425Y1.513
X1.5234Y1.513
X2.95Y1.063
X3.25Y1.063
X2.95Y0.963
X3.25Y0.963
X0.95Y1.063
X1.25Y1.063
X0.95Y0.963
X1.25Y0.963
X1.8Y0.4114
X1.8Y0.313
X2.95Y0.863
X3.25Y0.863
X2.95Y0.463
X3.25Y0.463
X1.15Y0.713
X1.15Y0.413
X0.95Y0.863
X1.25Y0.863
X1.05Y0.713
X1.05Y0.413
X2.95Y0.363
X3.25Y0.363
X2.95Y0.663
X3.25Y0.663
X2.95Y1.363
X3.25Y1.363
X0.7Y0.713
X0.7Y0.413
X0.6Y0.713
X0.6Y0.413
X2.95Y1.263
X3.25Y1.263
X1.875Y1.863
X1.875Y1.7646
X1.425Y1.363
X1.425Y1.263
X1.425Y1.163
X1.425Y1.063
X1.425Y0.963
X1.425Y0.863
X1.425Y0.763
X1.725Y1.363
X1.725Y1.263
X1.725Y1.163
X1.725Y1.063
X1.725Y0.963
X1.725Y0.863
X1.725Y0.763
X2.95Y0.763
X3.25Y0.763
X2.95Y1.163
X3.25Y1.163
T5
X0.28Y0.7949
X0.28Y0.7142
X0.28Y0.6118
X0.28Y0.5311
X0.378Y0.7949
X0.378Y0.5311
T6
X3.0Y1.863
X3.1772Y1.863
X1.4978Y1.863
X1.675Y1.863
T7
X1.25Y1.363
X1.25Y1.263
X2.45Y0.463
X2.45Y0.363
X0.525Y1.188
X0.7219Y1.188
X2.65Y0.463
X2.65Y0.363
X2.55Y0.463
X2.55Y0.363
X0.05Y0.063
X0.15Y0.063
X0.25Y0.063
X0.35Y0.063
X0.45Y0.063
X0.55Y0.063
X0.65Y0.063
X0.75Y0.063
X0.85Y0.063
X0.95Y0.063
X1.05Y0.063
X1.15Y0.063
X1.25Y0.063
X1.35Y0.063
X1.45Y0.063
X1.55Y0.063
X1.65Y0.063
X1.75Y0.063
X1.85Y0.063
X1.95Y0.063
X2.05Y0.063
X2.15Y0.063
X2.25Y0.063
X2.35Y0.063
X2.45Y0.063
X2.55Y0.063
X2.65Y0.063
X2.75Y0.063
X2.85Y0.063
X2.95Y0.063
X3.05Y0.063
X3.15Y0.063
X3.25Y0.063
X3.35Y0.063
X3.45Y0.063
X3.55Y0.063
X3.65Y0.063
X3.75Y0.063
X3.85Y0.063
X0.55Y1.613
X0.55Y1.513
X0.65Y1.613
X0.65Y1.513
X0.75Y1.613
X0.75Y1.513
X0.85Y1.613
X0.85Y1.513
X0.95Y1.613
X0.95Y1.513
X1.05Y1.613
X1.05Y1.513
X1.15Y1.363
X1.15Y1.263
X2.75Y0.463
X2.75Y0.363
X1.65Y0.163
X1.75Y0.163
X1.85Y0.163
X1.95Y0.163
X2.05Y0.163
X2.15Y0.163
X2.25Y0.163
X2.35Y0.163
X2.45Y0.163
X2.55Y0.163
X2.65Y0.163
X2.75Y0.163
X2.85Y0.163
X2.95Y0.163
X3.05Y0.163
X3.15Y0.163
X3.25Y0.163
X3.35Y0.163
X3.45Y0.163
X3.55Y0.163
X3.4Y1.113
X3.4Y1.0228
X3.4Y0.9327
X3.4Y0.8425
X3.4Y0.7524
X3.5Y1.1581
X3.5Y1.0679
X3.5Y0.9778
X3.5Y0.8876
X3.5Y0.7974
X3.6Y1.113
X3.6Y1.0228
X3.6Y0.9327
X3.6Y0.8425
X3.6Y0.7524
T8
X2.9508Y1.765
X3.2268Y1.765
X1.4486Y1.765
X1.7246Y1.765
T9
X0.13Y0.663
X0.1619Y0.9291
X0.1619Y0.3969
T10
X3.4984Y1.4352
X3.4984Y0.451
T0
M30
