M48
; DRILL file {KiCad (5.1.6)-1} date 12/22/20 01:41:04
; FORMAT={-:-/ absolute / inch / decimal}
; #@! TF.CreationDate,2020-12-22T01:41:04-08:00
; #@! TF.GenerationSoftware,Kicad,Pcbnew,(5.1.6)-1
; #@! TF.FileFunction,Plated,1,2,PTH
FMAT,2
INCH
T1C0.0157
T2C0.0295
T3C0.0315
T4C0.0382
T5C0.0390
T6C0.0394
T7C0.0512
T8C0.0933
T9C0.1260
%
G90
G05
T1
X0.525Y0.4005
X0.775Y0.4505
X1.0Y1.413
X1.0125Y1.3005
X1.0625Y1.3255
X1.1Y1.013
X1.1625Y0.763
X1.25Y1.163
X1.25Y0.588
X1.325Y1.413
X1.3375Y0.6255
X1.5Y0.888
X1.525Y1.363
X1.535Y0.7755
X1.5375Y1.0505
X1.55Y1.213
X1.575Y1.313
X1.6Y1.338
X1.625Y1.238
X1.8Y1.513
X1.8125Y1.638
X1.871Y0.842
X1.871Y0.738
X1.875Y1.438
X1.89Y1.313
X1.975Y0.813
X2.075Y1.913
X2.075Y1.563
X2.075Y1.213
X2.1375Y0.613
X2.5Y0.413
X2.5Y0.238
X2.6Y1.913
X2.6Y1.763
X2.6Y1.713
X2.6Y1.563
X2.6Y1.213
X2.625Y0.588
X2.7625Y1.263
X2.8125Y1.663
X3.025Y1.5255
T2
X0.825Y0.588
X0.875Y0.538
X0.925Y0.588
X0.825Y0.338
X0.875Y0.288
X0.925Y0.338
T3
X0.7Y0.588
X0.7Y0.288
X0.95Y1.013
X1.25Y1.013
X2.9625Y1.263
X3.2625Y1.263
X1.05Y0.588
X1.05Y0.288
X2.1375Y0.8667
X2.1375Y0.788
X0.8Y0.913
X0.8Y0.8146
X1.15Y0.588
X1.15Y0.288
X2.15Y0.4114
X2.15Y0.313
X2.9625Y1.363
X3.2625Y1.363
X0.6Y0.588
X0.6Y0.288
X2.9625Y1.063
X3.2625Y1.063
X1.425Y1.363
X1.425Y1.263
X1.425Y1.163
X1.425Y1.063
X1.425Y0.963
X1.425Y0.863
X1.425Y0.763
X1.725Y1.363
X1.725Y1.263
X1.725Y1.163
X1.725Y1.063
X1.725Y0.963
X1.725Y0.863
X1.725Y0.763
X1.825Y1.863
X1.825Y1.7646
X0.95Y0.913
X1.25Y0.913
X1.425Y1.513
X1.5234Y1.513
X1.425Y1.638
X1.725Y1.638
X1.6266Y1.513
X1.725Y1.513
X2.9625Y0.463
X3.2625Y0.463
X2.9625Y0.763
X3.2625Y0.763
X2.9625Y0.863
X3.2625Y0.863
X0.95Y0.713
X1.25Y0.713
X2.9625Y0.963
X3.2625Y0.963
X2.9625Y0.563
X3.2625Y0.563
X2.9625Y0.363
X3.2625Y0.363
X1.75Y0.4114
X1.75Y0.313
X2.9625Y0.663
X3.2625Y0.663
X2.9625Y1.163
X3.2625Y1.163
X0.95Y0.813
X1.25Y0.813
T4
X0.28Y0.7449
X0.28Y0.6642
X0.28Y0.5618
X0.28Y0.4811
X0.378Y0.7449
X0.378Y0.4811
T5
X3.1Y1.863
X3.2772Y1.863
X1.3978Y1.863
X1.575Y1.863
T6
X2.45Y0.463
X2.45Y0.363
X1.65Y0.163
X1.75Y0.163
X1.85Y0.163
X1.95Y0.163
X2.05Y0.163
X2.15Y0.163
X2.25Y0.163
X2.35Y0.163
X2.45Y0.163
X2.55Y0.163
X2.65Y0.163
X2.75Y0.163
X2.85Y0.163
X2.95Y0.163
X3.05Y0.163
X3.15Y0.163
X3.25Y0.163
X3.35Y0.163
X3.45Y0.163
X3.55Y0.163
X1.25Y1.363
X1.25Y1.263
X2.75Y0.463
X2.75Y0.363
X1.15Y1.363
X1.15Y1.263
X2.55Y0.463
X2.55Y0.363
X0.05Y0.063
X0.15Y0.063
X0.25Y0.063
X0.35Y0.063
X0.45Y0.063
X0.55Y0.063
X0.65Y0.063
X0.75Y0.063
X0.85Y0.063
X0.95Y0.063
X1.05Y0.063
X1.15Y0.063
X1.25Y0.063
X1.35Y0.063
X1.45Y0.063
X1.55Y0.063
X1.65Y0.063
X1.75Y0.063
X1.85Y0.063
X1.95Y0.063
X2.05Y0.063
X2.15Y0.063
X2.25Y0.063
X2.35Y0.063
X2.45Y0.063
X2.55Y0.063
X2.65Y0.063
X2.75Y0.063
X2.85Y0.063
X2.95Y0.063
X3.05Y0.063
X3.15Y0.063
X3.25Y0.063
X3.35Y0.063
X3.45Y0.063
X3.55Y0.063
X3.65Y0.063
X3.75Y0.063
X3.85Y0.063
X2.65Y0.463
X2.65Y0.363
X0.55Y1.613
X0.55Y1.513
X0.65Y1.613
X0.65Y1.513
X0.75Y1.613
X0.75Y1.513
X0.85Y1.613
X0.85Y1.513
X0.95Y1.613
X0.95Y1.513
X1.05Y1.613
X1.05Y1.513
X3.4125Y1.113
X3.4125Y1.0228
X3.4125Y0.9327
X3.4125Y0.8425
X3.4125Y0.7524
X3.5125Y1.1581
X3.5125Y1.0679
X3.5125Y0.9778
X3.5125Y0.8876
X3.5125Y0.7974
X3.6125Y1.113
X3.6125Y1.0228
X3.6125Y0.9327
X3.6125Y0.8425
X3.6125Y0.7524
X0.525Y1.188
X0.7219Y1.188
T7
X3.0508Y1.765
X3.3268Y1.765
X1.3486Y1.765
X1.6246Y1.765
T8
X0.13Y0.613
X0.1619Y0.8791
X0.1619Y0.3469
T9
X3.5109Y1.4352
X3.5109Y0.451
T0
M30
