%TF.GenerationSoftware,KiCad,Pcbnew,(5.1.6)-1*%
%TF.CreationDate,2020-11-25T00:21:07-08:00*%
%TF.ProjectId,rc-fabgl,72632d66-6162-4676-9c2e-6b696361645f,rev?*%
%TF.SameCoordinates,PX9157080PY9071968*%
%TF.FileFunction,Soldermask,Bot*%
%TF.FilePolarity,Negative*%
%FSLAX46Y46*%
G04 Gerber Fmt 4.6, Leading zero omitted, Abs format (unit mm)*
G04 Created by KiCad (PCBNEW (5.1.6)-1) date 2020-11-25 00:21:07*
%MOMM*%
%LPD*%
G01*
G04 APERTURE LIST*
%ADD10O,1.954000X1.954000*%
%ADD11R,1.854000X1.854000*%
%ADD12C,1.854000*%
%ADD13C,4.254000*%
%ADD14C,3.808999*%
%ADD15C,1.763000*%
%ADD16O,2.654000X1.854000*%
%ADD17O,1.854000X1.854000*%
%ADD18C,1.554000*%
%ADD19C,1.954000*%
%ADD20C,2.254000*%
%ADD21C,2.354000*%
%ADD22C,2.004000*%
%ADD23C,3.454000*%
G04 APERTURE END LIST*
D10*
%TO.C,J3*%
X26670000Y40970200D03*
X26670000Y38430200D03*
X24130000Y40970200D03*
X24130000Y38430200D03*
X21590000Y40970200D03*
X21590000Y38430200D03*
X19050000Y40970200D03*
X19050000Y38430200D03*
X16510000Y40970200D03*
X16510000Y38430200D03*
G36*
G01*
X14458500Y39993200D02*
X13481500Y39993200D01*
G75*
G02*
X12993000Y40481700I0J488500D01*
G01*
X12993000Y41458700D01*
G75*
G02*
X13481500Y41947200I488500J0D01*
G01*
X14458500Y41947200D01*
G75*
G02*
X14947000Y41458700I0J-488500D01*
G01*
X14947000Y40481700D01*
G75*
G02*
X14458500Y39993200I-488500J0D01*
G01*
G37*
G36*
G01*
X14458500Y37453200D02*
X13481500Y37453200D01*
G75*
G02*
X12993000Y37941700I0J488500D01*
G01*
X12993000Y38918700D01*
G75*
G02*
X13481500Y39407200I488500J0D01*
G01*
X14458500Y39407200D01*
G75*
G02*
X14947000Y38918700I0J-488500D01*
G01*
X14947000Y37941700D01*
G75*
G02*
X14458500Y37453200I-488500J0D01*
G01*
G37*
%TD*%
D11*
%TO.C,J6*%
X86360000Y28270200D03*
D12*
X86360000Y25980200D03*
X86360000Y23690200D03*
X86360000Y21400200D03*
X86360000Y19110200D03*
X88900000Y29415200D03*
X88900000Y27125200D03*
X88900000Y24835200D03*
X88900000Y22545200D03*
X88900000Y20255200D03*
X91440000Y28270200D03*
X91440000Y25980200D03*
X91440000Y23690200D03*
X91440000Y21400200D03*
X91440000Y19110200D03*
D13*
X88860000Y11455200D03*
X88860000Y36455200D03*
%TD*%
D14*
%TO.C,J5*%
X4112000Y23600200D03*
X4112000Y10080200D03*
X3302000Y16840200D03*
D15*
X9602000Y13490200D03*
X9602000Y20190200D03*
X7112000Y13490200D03*
X7112000Y20190200D03*
X7112000Y15540200D03*
X7112000Y18140200D03*
%TD*%
D16*
%TO.C,U3*%
X43815000Y34620200D03*
X36195000Y19380200D03*
X43815000Y32080200D03*
X36195000Y21920200D03*
X43815000Y29540200D03*
X36195000Y24460200D03*
X43815000Y27000200D03*
X36195000Y27000200D03*
X43815000Y24460200D03*
X36195000Y29540200D03*
X43815000Y21920200D03*
X36195000Y32080200D03*
X43815000Y19380200D03*
G36*
G01*
X34868000Y34156700D02*
X34868000Y35083700D01*
G75*
G02*
X35331500Y35547200I463500J0D01*
G01*
X37058500Y35547200D01*
G75*
G02*
X37522000Y35083700I0J-463500D01*
G01*
X37522000Y34156700D01*
G75*
G02*
X37058500Y33693200I-463500J0D01*
G01*
X35331500Y33693200D01*
G75*
G02*
X34868000Y34156700I0J463500D01*
G01*
G37*
%TD*%
D17*
%TO.C,R19*%
X82550000Y9220200D03*
D12*
X74930000Y9220200D03*
%TD*%
D17*
%TO.C,R18*%
X82550000Y11760200D03*
D12*
X74930000Y11760200D03*
%TD*%
D17*
%TO.C,R17*%
X82550000Y14300200D03*
D12*
X74930000Y14300200D03*
%TD*%
D17*
%TO.C,R16*%
X82550000Y16840200D03*
D12*
X74930000Y16840200D03*
%TD*%
D17*
%TO.C,R15*%
X82550000Y19380200D03*
D12*
X74930000Y19380200D03*
%TD*%
D17*
%TO.C,R14*%
X82550000Y21920200D03*
D12*
X74930000Y21920200D03*
%TD*%
D17*
%TO.C,R13*%
X82550000Y24460200D03*
D12*
X74930000Y24460200D03*
%TD*%
D17*
%TO.C,R12*%
X82550000Y27000200D03*
D12*
X74930000Y27000200D03*
%TD*%
D17*
%TO.C,R11*%
X82550000Y29540200D03*
D12*
X74930000Y29540200D03*
%TD*%
D17*
%TO.C,R10*%
X82550000Y32080200D03*
D12*
X74930000Y32080200D03*
%TD*%
D17*
%TO.C,R9*%
X82550000Y34620200D03*
D12*
X74930000Y34620200D03*
%TD*%
D17*
%TO.C,R5*%
X15240000Y18110200D03*
D12*
X15240000Y10490200D03*
%TD*%
D17*
%TO.C,R6*%
X17780000Y10490200D03*
D12*
X17780000Y18110200D03*
%TD*%
D17*
%TO.C,R8*%
X29210000Y18110200D03*
D12*
X29210000Y10490200D03*
%TD*%
D17*
%TO.C,R7*%
X26670000Y10490200D03*
D12*
X26670000Y18110200D03*
%TD*%
D17*
%TO.C,R2*%
X31750000Y27000200D03*
D12*
X24130000Y27000200D03*
%TD*%
D17*
%TO.C,R3*%
X31750000Y24460200D03*
D12*
X24130000Y24460200D03*
%TD*%
D17*
%TO.C,R4*%
X31750000Y21920200D03*
D12*
X24130000Y21920200D03*
%TD*%
D17*
%TO.C,R1*%
X36195000Y41605200D03*
D12*
X43815000Y41605200D03*
%TD*%
D18*
%TO.C,Q1*%
X23495000Y18110200D03*
X20955000Y18110200D03*
X22225000Y16840200D03*
%TD*%
%TO.C,Q2*%
X23495000Y11760200D03*
X20955000Y11760200D03*
X22225000Y10490200D03*
%TD*%
D10*
%TO.C,JP6*%
X69850000Y9220200D03*
D19*
X69850000Y11760200D03*
%TD*%
D10*
%TO.C,JP5*%
X67310000Y9220200D03*
D19*
X67310000Y11760200D03*
%TD*%
D10*
%TO.C,JP4*%
X64770000Y9220200D03*
D19*
X64770000Y11760200D03*
%TD*%
D10*
%TO.C,JP3*%
X62230000Y9220200D03*
D19*
X62230000Y11760200D03*
%TD*%
D10*
%TO.C,JP2*%
X31750000Y32080200D03*
D19*
X31750000Y34620200D03*
%TD*%
D12*
%TO.C,C6*%
X41315000Y38430200D03*
X43815000Y38430200D03*
%TD*%
%TO.C,C4*%
X47625000Y44820200D03*
X47625000Y47320200D03*
%TD*%
%TO.C,C3*%
X54610000Y19920200D03*
G36*
G01*
X54146500Y22847200D02*
X55073500Y22847200D01*
G75*
G02*
X55537000Y22383700I0J-463500D01*
G01*
X55537000Y21456700D01*
G75*
G02*
X55073500Y20993200I-463500J0D01*
G01*
X54146500Y20993200D01*
G75*
G02*
X53683000Y21456700I0J463500D01*
G01*
X53683000Y22383700D01*
G75*
G02*
X54146500Y22847200I463500J0D01*
G01*
G37*
%TD*%
%TO.C,C1*%
X45720000Y10450200D03*
X45720000Y7950200D03*
%TD*%
D20*
%TO.C,BZ1*%
X18335000Y30175200D03*
G36*
G01*
X12208000Y29611700D02*
X12208000Y30738700D01*
G75*
G02*
X12771500Y31302200I563500J0D01*
G01*
X13898500Y31302200D01*
G75*
G02*
X14462000Y30738700I0J-563500D01*
G01*
X14462000Y29611700D01*
G75*
G02*
X13898500Y29048200I-563500J0D01*
G01*
X12771500Y29048200D01*
G75*
G02*
X12208000Y29611700I0J563500D01*
G01*
G37*
%TD*%
D21*
%TO.C,SW2*%
X74950000Y44830200D03*
D22*
X76200000Y47320200D03*
X80700000Y47320200D03*
D21*
X81960000Y44830200D03*
%TD*%
%TO.C,SW1*%
X36795000Y44830200D03*
D22*
X38045000Y47320200D03*
X42545000Y47320200D03*
D21*
X43805000Y44830200D03*
%TD*%
D10*
%TO.C,JP1*%
X29210000Y32080200D03*
D19*
X29210000Y34620200D03*
%TD*%
D10*
%TO.C,J2*%
X90170000Y4140200D03*
X87630000Y4140200D03*
X85090000Y4140200D03*
X82550000Y4140200D03*
X80010000Y4140200D03*
X77470000Y4140200D03*
X74930000Y4140200D03*
X72390000Y4140200D03*
X69850000Y4140200D03*
X67310000Y4140200D03*
X64770000Y4140200D03*
X62230000Y4140200D03*
X59690000Y4140200D03*
X57150000Y4140200D03*
X54610000Y4140200D03*
X52070000Y4140200D03*
X49530000Y4140200D03*
X46990000Y4140200D03*
X44450000Y4140200D03*
D19*
X41910000Y4140200D03*
%TD*%
D12*
%TO.C,C5*%
X38695000Y38430200D03*
X36195000Y38430200D03*
%TD*%
%TO.C,C2*%
X55880000Y7950200D03*
X55880000Y10450200D03*
%TD*%
D10*
%TO.C,J1*%
X97790000Y1600200D03*
X95250000Y1600200D03*
X92710000Y1600200D03*
X90170000Y1600200D03*
X87630000Y1600200D03*
X85090000Y1600200D03*
X82550000Y1600200D03*
X80010000Y1600200D03*
X77470000Y1600200D03*
X74930000Y1600200D03*
X72390000Y1600200D03*
X69850000Y1600200D03*
X67310000Y1600200D03*
X64770000Y1600200D03*
X62230000Y1600200D03*
X59690000Y1600200D03*
X57150000Y1600200D03*
X54610000Y1600200D03*
X52070000Y1600200D03*
X49530000Y1600200D03*
X46990000Y1600200D03*
X44450000Y1600200D03*
X41910000Y1600200D03*
X39370000Y1600200D03*
X36830000Y1600200D03*
X34290000Y1600200D03*
X31750000Y1600200D03*
X29210000Y1600200D03*
X26670000Y1600200D03*
X24130000Y1600200D03*
X21590000Y1600200D03*
X19050000Y1600200D03*
X16510000Y1600200D03*
X13970000Y1600200D03*
X11430000Y1600200D03*
X8890000Y1600200D03*
X6350000Y1600200D03*
X3810000Y1600200D03*
G36*
G01*
X1758500Y623200D02*
X781500Y623200D01*
G75*
G02*
X293000Y1111700I0J488500D01*
G01*
X293000Y2088700D01*
G75*
G02*
X781500Y2577200I488500J0D01*
G01*
X1758500Y2577200D01*
G75*
G02*
X2247000Y2088700I0J-488500D01*
G01*
X2247000Y1111700D01*
G75*
G02*
X1758500Y623200I-488500J0D01*
G01*
G37*
%TD*%
D23*
%TO.C,*%
X5080000Y33350200D03*
%TD*%
M02*
