%TF.GenerationSoftware,KiCad,Pcbnew,(5.1.6)-1*%
%TF.CreationDate,2020-12-02T01:08:57-08:00*%
%TF.ProjectId,rc-fabgl,72632d66-6162-4676-9c2e-6b696361645f,rev?*%
%TF.SameCoordinates,PX9157080PY9071968*%
%TF.FileFunction,Legend,Bot*%
%TF.FilePolarity,Positive*%
%FSLAX46Y46*%
G04 Gerber Fmt 4.6, Leading zero omitted, Abs format (unit mm)*
G04 Created by KiCad (PCBNEW (5.1.6)-1) date 2020-12-02 01:08:57*
%MOMM*%
%LPD*%
G01*
G04 APERTURE LIST*
%ADD10C,0.300000*%
G04 APERTURE END LIST*
D10*
X66511428Y40306629D02*
X67011428Y41020915D01*
X67368571Y40306629D02*
X67368571Y41806629D01*
X66797142Y41806629D01*
X66654285Y41735200D01*
X66582857Y41663772D01*
X66511428Y41520915D01*
X66511428Y41306629D01*
X66582857Y41163772D01*
X66654285Y41092343D01*
X66797142Y41020915D01*
X67368571Y41020915D01*
X65297142Y40378058D02*
X65440000Y40306629D01*
X65725714Y40306629D01*
X65868571Y40378058D01*
X65940000Y40520915D01*
X65940000Y41092343D01*
X65868571Y41235200D01*
X65725714Y41306629D01*
X65440000Y41306629D01*
X65297142Y41235200D01*
X65225714Y41092343D01*
X65225714Y40949486D01*
X65940000Y40806629D01*
X64582857Y40306629D02*
X64582857Y41306629D01*
X64582857Y41163772D02*
X64511428Y41235200D01*
X64368571Y41306629D01*
X64154285Y41306629D01*
X64011428Y41235200D01*
X63940000Y41092343D01*
X63940000Y40306629D01*
X63940000Y41092343D02*
X63868571Y41235200D01*
X63725714Y41306629D01*
X63511428Y41306629D01*
X63368571Y41235200D01*
X63297142Y41092343D01*
X63297142Y40306629D01*
X62368571Y40306629D02*
X62511428Y40378058D01*
X62582857Y40449486D01*
X62654285Y40592343D01*
X62654285Y41020915D01*
X62582857Y41163772D01*
X62511428Y41235200D01*
X62368571Y41306629D01*
X62154285Y41306629D01*
X62011428Y41235200D01*
X61940000Y41163772D01*
X61868571Y41020915D01*
X61868571Y40592343D01*
X61940000Y40449486D01*
X62011428Y40378058D01*
X62154285Y40306629D01*
X62368571Y40306629D01*
X61368571Y41306629D02*
X61011428Y40306629D01*
X60654285Y41306629D01*
X59511428Y40378058D02*
X59654285Y40306629D01*
X59940000Y40306629D01*
X60082857Y40378058D01*
X60154285Y40520915D01*
X60154285Y41092343D01*
X60082857Y41235200D01*
X59940000Y41306629D01*
X59654285Y41306629D01*
X59511428Y41235200D01*
X59440000Y41092343D01*
X59440000Y40949486D01*
X60154285Y40806629D01*
X57654285Y40306629D02*
X57654285Y41806629D01*
X57654285Y41235200D02*
X57511428Y41306629D01*
X57225714Y41306629D01*
X57082857Y41235200D01*
X57011428Y41163772D01*
X56940000Y41020915D01*
X56940000Y40592343D01*
X57011428Y40449486D01*
X57082857Y40378058D01*
X57225714Y40306629D01*
X57511428Y40306629D01*
X57654285Y40378058D01*
X56082857Y40306629D02*
X56225714Y40378058D01*
X56297142Y40449486D01*
X56368571Y40592343D01*
X56368571Y41020915D01*
X56297142Y41163772D01*
X56225714Y41235200D01*
X56082857Y41306629D01*
X55868571Y41306629D01*
X55725714Y41235200D01*
X55654285Y41163772D01*
X55582857Y41020915D01*
X55582857Y40592343D01*
X55654285Y40449486D01*
X55725714Y40378058D01*
X55868571Y40306629D01*
X56082857Y40306629D01*
X54297142Y40306629D02*
X54297142Y41092343D01*
X54368571Y41235200D01*
X54511428Y41306629D01*
X54797142Y41306629D01*
X54940000Y41235200D01*
X54297142Y40378058D02*
X54440000Y40306629D01*
X54797142Y40306629D01*
X54940000Y40378058D01*
X55011428Y40520915D01*
X55011428Y40663772D01*
X54940000Y40806629D01*
X54797142Y40878058D01*
X54440000Y40878058D01*
X54297142Y40949486D01*
X53582857Y40306629D02*
X53582857Y41306629D01*
X53582857Y41020915D02*
X53511428Y41163772D01*
X53440000Y41235200D01*
X53297142Y41306629D01*
X53154285Y41306629D01*
X52011428Y40306629D02*
X52011428Y41806629D01*
X52011428Y40378058D02*
X52154285Y40306629D01*
X52440000Y40306629D01*
X52582857Y40378058D01*
X52654285Y40449486D01*
X52725714Y40592343D01*
X52725714Y41020915D01*
X52654285Y41163772D01*
X52582857Y41235200D01*
X52440000Y41306629D01*
X52154285Y41306629D01*
X52011428Y41235200D01*
X69154285Y38756629D02*
X68582857Y38756629D01*
X68940000Y37756629D02*
X68940000Y39042343D01*
X68868571Y39185200D01*
X68725714Y39256629D01*
X68582857Y39256629D01*
X68082857Y37756629D02*
X68082857Y38756629D01*
X68082857Y38470915D02*
X68011428Y38613772D01*
X67940000Y38685200D01*
X67797142Y38756629D01*
X67654285Y38756629D01*
X66940000Y37756629D02*
X67082857Y37828058D01*
X67154285Y37899486D01*
X67225714Y38042343D01*
X67225714Y38470915D01*
X67154285Y38613772D01*
X67082857Y38685200D01*
X66940000Y38756629D01*
X66725714Y38756629D01*
X66582857Y38685200D01*
X66511428Y38613772D01*
X66440000Y38470915D01*
X66440000Y38042343D01*
X66511428Y37899486D01*
X66582857Y37828058D01*
X66725714Y37756629D01*
X66940000Y37756629D01*
X65797142Y37756629D02*
X65797142Y38756629D01*
X65797142Y38613772D02*
X65725714Y38685200D01*
X65582857Y38756629D01*
X65368571Y38756629D01*
X65225714Y38685200D01*
X65154285Y38542343D01*
X65154285Y37756629D01*
X65154285Y38542343D02*
X65082857Y38685200D01*
X64940000Y38756629D01*
X64725714Y38756629D01*
X64582857Y38685200D01*
X64511428Y38542343D01*
X64511428Y37756629D01*
X62725714Y37828058D02*
X62582857Y37756629D01*
X62297142Y37756629D01*
X62154285Y37828058D01*
X62082857Y37970915D01*
X62082857Y38042343D01*
X62154285Y38185200D01*
X62297142Y38256629D01*
X62511428Y38256629D01*
X62654285Y38328058D01*
X62725714Y38470915D01*
X62725714Y38542343D01*
X62654285Y38685200D01*
X62511428Y38756629D01*
X62297142Y38756629D01*
X62154285Y38685200D01*
X61582857Y38756629D02*
X61225714Y37756629D01*
X60868571Y38756629D02*
X61225714Y37756629D01*
X61368571Y37399486D01*
X61440000Y37328058D01*
X61582857Y37256629D01*
X60368571Y37828058D02*
X60225714Y37756629D01*
X59940000Y37756629D01*
X59797142Y37828058D01*
X59725714Y37970915D01*
X59725714Y38042343D01*
X59797142Y38185200D01*
X59940000Y38256629D01*
X60154285Y38256629D01*
X60297142Y38328058D01*
X60368571Y38470915D01*
X60368571Y38542343D01*
X60297142Y38685200D01*
X60154285Y38756629D01*
X59940000Y38756629D01*
X59797142Y38685200D01*
X59297142Y38756629D02*
X58725714Y38756629D01*
X59082857Y39256629D02*
X59082857Y37970915D01*
X59011428Y37828058D01*
X58868571Y37756629D01*
X58725714Y37756629D01*
X57654285Y37828058D02*
X57797142Y37756629D01*
X58082857Y37756629D01*
X58225714Y37828058D01*
X58297142Y37970915D01*
X58297142Y38542343D01*
X58225714Y38685200D01*
X58082857Y38756629D01*
X57797142Y38756629D01*
X57654285Y38685200D01*
X57582857Y38542343D01*
X57582857Y38399486D01*
X58297142Y38256629D01*
X56940000Y37756629D02*
X56940000Y38756629D01*
X56940000Y38613772D02*
X56868571Y38685200D01*
X56725714Y38756629D01*
X56511428Y38756629D01*
X56368571Y38685200D01*
X56297142Y38542343D01*
X56297142Y37756629D01*
X56297142Y38542343D02*
X56225714Y38685200D01*
X56082857Y38756629D01*
X55868571Y38756629D01*
X55725714Y38685200D01*
X55654285Y38542343D01*
X55654285Y37756629D01*
X53154285Y37756629D02*
X53154285Y38542343D01*
X53225714Y38685200D01*
X53368571Y38756629D01*
X53654285Y38756629D01*
X53797142Y38685200D01*
X53154285Y37828058D02*
X53297142Y37756629D01*
X53654285Y37756629D01*
X53797142Y37828058D01*
X53868571Y37970915D01*
X53868571Y38113772D01*
X53797142Y38256629D01*
X53654285Y38328058D01*
X53297142Y38328058D01*
X53154285Y38399486D01*
X52440000Y38756629D02*
X52440000Y37756629D01*
X52440000Y38613772D02*
X52368571Y38685200D01*
X52225714Y38756629D01*
X52011428Y38756629D01*
X51868571Y38685200D01*
X51797142Y38542343D01*
X51797142Y37756629D01*
X50440000Y37756629D02*
X50440000Y39256629D01*
X50440000Y37828058D02*
X50582857Y37756629D01*
X50868571Y37756629D01*
X51011428Y37828058D01*
X51082857Y37899486D01*
X51154285Y38042343D01*
X51154285Y38470915D01*
X51082857Y38613772D01*
X51011428Y38685200D01*
X50868571Y38756629D01*
X50582857Y38756629D01*
X50440000Y38685200D01*
X69582857Y35206629D02*
X69582857Y36206629D01*
X69582857Y36706629D02*
X69654285Y36635200D01*
X69582857Y36563772D01*
X69511428Y36635200D01*
X69582857Y36706629D01*
X69582857Y36563772D01*
X68868571Y36206629D02*
X68868571Y35206629D01*
X68868571Y36063772D02*
X68797142Y36135200D01*
X68654285Y36206629D01*
X68440000Y36206629D01*
X68297142Y36135200D01*
X68225714Y35992343D01*
X68225714Y35206629D01*
X67582857Y35278058D02*
X67440000Y35206629D01*
X67154285Y35206629D01*
X67011428Y35278058D01*
X66940000Y35420915D01*
X66940000Y35492343D01*
X67011428Y35635200D01*
X67154285Y35706629D01*
X67368571Y35706629D01*
X67511428Y35778058D01*
X67582857Y35920915D01*
X67582857Y35992343D01*
X67511428Y36135200D01*
X67368571Y36206629D01*
X67154285Y36206629D01*
X67011428Y36135200D01*
X66511428Y36206629D02*
X65940000Y36206629D01*
X66297142Y36706629D02*
X66297142Y35420915D01*
X66225714Y35278058D01*
X66082857Y35206629D01*
X65940000Y35206629D01*
X64797142Y35206629D02*
X64797142Y35992343D01*
X64868571Y36135200D01*
X65011428Y36206629D01*
X65297142Y36206629D01*
X65440000Y36135200D01*
X64797142Y35278058D02*
X64940000Y35206629D01*
X65297142Y35206629D01*
X65440000Y35278058D01*
X65511428Y35420915D01*
X65511428Y35563772D01*
X65440000Y35706629D01*
X65297142Y35778058D01*
X64940000Y35778058D01*
X64797142Y35849486D01*
X63868571Y35206629D02*
X64011428Y35278058D01*
X64082857Y35420915D01*
X64082857Y36706629D01*
X63082857Y35206629D02*
X63225714Y35278058D01*
X63297142Y35420915D01*
X63297142Y36706629D01*
X60940000Y36706629D02*
X60940000Y35635200D01*
X61011428Y35420915D01*
X61154285Y35278058D01*
X61368571Y35206629D01*
X61511428Y35206629D01*
X60225714Y35206629D02*
X60225714Y36706629D01*
X59654285Y36706629D01*
X59511428Y36635200D01*
X59440000Y36563772D01*
X59368571Y36420915D01*
X59368571Y36206629D01*
X59440000Y36063772D01*
X59511428Y35992343D01*
X59654285Y35920915D01*
X60225714Y35920915D01*
X57940000Y35206629D02*
X58797142Y35206629D01*
X58368571Y35206629D02*
X58368571Y36706629D01*
X58511428Y36492343D01*
X58654285Y36349486D01*
X58797142Y36278058D01*
X56154285Y35206629D02*
X56154285Y36706629D01*
X56154285Y36135200D02*
X56011428Y36206629D01*
X55725714Y36206629D01*
X55582857Y36135200D01*
X55511428Y36063772D01*
X55440000Y35920915D01*
X55440000Y35492343D01*
X55511428Y35349486D01*
X55582857Y35278058D01*
X55725714Y35206629D01*
X56011428Y35206629D01*
X56154285Y35278058D01*
X54225714Y35278058D02*
X54368571Y35206629D01*
X54654285Y35206629D01*
X54797142Y35278058D01*
X54868571Y35420915D01*
X54868571Y35992343D01*
X54797142Y36135200D01*
X54654285Y36206629D01*
X54368571Y36206629D01*
X54225714Y36135200D01*
X54154285Y35992343D01*
X54154285Y35849486D01*
X54868571Y35706629D01*
X53725714Y36206629D02*
X53154285Y36206629D01*
X53511428Y35206629D02*
X53511428Y36492343D01*
X53440000Y36635200D01*
X53297142Y36706629D01*
X53154285Y36706629D01*
X52440000Y35206629D02*
X52582857Y35278058D01*
X52654285Y35349486D01*
X52725714Y35492343D01*
X52725714Y35920915D01*
X52654285Y36063772D01*
X52582857Y36135200D01*
X52440000Y36206629D01*
X52225714Y36206629D01*
X52082857Y36135200D01*
X52011428Y36063772D01*
X51940000Y35920915D01*
X51940000Y35492343D01*
X52011428Y35349486D01*
X52082857Y35278058D01*
X52225714Y35206629D01*
X52440000Y35206629D01*
X51297142Y35206629D02*
X51297142Y36206629D01*
X51297142Y35920915D02*
X51225714Y36063772D01*
X51154285Y36135200D01*
X51011428Y36206629D01*
X50868571Y36206629D01*
X49797142Y35278058D02*
X49940000Y35206629D01*
X50225714Y35206629D01*
X50368571Y35278058D01*
X50440000Y35420915D01*
X50440000Y35992343D01*
X50368571Y36135200D01*
X50225714Y36206629D01*
X49940000Y36206629D01*
X49797142Y36135200D01*
X49725714Y35992343D01*
X49725714Y35849486D01*
X50440000Y35706629D01*
X68654285Y32656629D02*
X68797142Y32728058D01*
X68868571Y32870915D01*
X68868571Y34156629D01*
X67868571Y32656629D02*
X68011428Y32728058D01*
X68082857Y32799486D01*
X68154285Y32942343D01*
X68154285Y33370915D01*
X68082857Y33513772D01*
X68011428Y33585200D01*
X67868571Y33656629D01*
X67654285Y33656629D01*
X67511428Y33585200D01*
X67440000Y33513772D01*
X67368571Y33370915D01*
X67368571Y32942343D01*
X67440000Y32799486D01*
X67511428Y32728058D01*
X67654285Y32656629D01*
X67868571Y32656629D01*
X66082857Y32656629D02*
X66082857Y33442343D01*
X66154285Y33585200D01*
X66297142Y33656629D01*
X66582857Y33656629D01*
X66725714Y33585200D01*
X66082857Y32728058D02*
X66225714Y32656629D01*
X66582857Y32656629D01*
X66725714Y32728058D01*
X66797142Y32870915D01*
X66797142Y33013772D01*
X66725714Y33156629D01*
X66582857Y33228058D01*
X66225714Y33228058D01*
X66082857Y33299486D01*
X64725714Y32656629D02*
X64725714Y34156629D01*
X64725714Y32728058D02*
X64868571Y32656629D01*
X65154285Y32656629D01*
X65297142Y32728058D01*
X65368571Y32799486D01*
X65440000Y32942343D01*
X65440000Y33370915D01*
X65368571Y33513772D01*
X65297142Y33585200D01*
X65154285Y33656629D01*
X64868571Y33656629D01*
X64725714Y33585200D01*
X64011428Y32656629D02*
X64011428Y33656629D01*
X64011428Y34156629D02*
X64082857Y34085200D01*
X64011428Y34013772D01*
X63940000Y34085200D01*
X64011428Y34156629D01*
X64011428Y34013772D01*
X63297142Y33656629D02*
X63297142Y32656629D01*
X63297142Y33513772D02*
X63225714Y33585200D01*
X63082857Y33656629D01*
X62868571Y33656629D01*
X62725714Y33585200D01*
X62654285Y33442343D01*
X62654285Y32656629D01*
X61297142Y33656629D02*
X61297142Y32442343D01*
X61368571Y32299486D01*
X61440000Y32228058D01*
X61582857Y32156629D01*
X61797142Y32156629D01*
X61940000Y32228058D01*
X61297142Y32728058D02*
X61440000Y32656629D01*
X61725714Y32656629D01*
X61868571Y32728058D01*
X61940000Y32799486D01*
X62011428Y32942343D01*
X62011428Y33370915D01*
X61940000Y33513772D01*
X61868571Y33585200D01*
X61725714Y33656629D01*
X61440000Y33656629D01*
X61297142Y33585200D01*
X59654285Y33656629D02*
X59082857Y33656629D01*
X59440000Y32656629D02*
X59440000Y33942343D01*
X59368571Y34085200D01*
X59225714Y34156629D01*
X59082857Y34156629D01*
X58582857Y32656629D02*
X58582857Y33656629D01*
X58582857Y34156629D02*
X58654285Y34085200D01*
X58582857Y34013772D01*
X58511428Y34085200D01*
X58582857Y34156629D01*
X58582857Y34013772D01*
X57868571Y32656629D02*
X57868571Y33656629D01*
X57868571Y33370915D02*
X57797142Y33513772D01*
X57725714Y33585200D01*
X57582857Y33656629D01*
X57440000Y33656629D01*
X56940000Y32656629D02*
X56940000Y33656629D01*
X56940000Y33513772D02*
X56868571Y33585200D01*
X56725714Y33656629D01*
X56511428Y33656629D01*
X56368571Y33585200D01*
X56297142Y33442343D01*
X56297142Y32656629D01*
X56297142Y33442343D02*
X56225714Y33585200D01*
X56082857Y33656629D01*
X55868571Y33656629D01*
X55725714Y33585200D01*
X55654285Y33442343D01*
X55654285Y32656629D01*
X55082857Y33656629D02*
X54797142Y32656629D01*
X54511428Y33370915D01*
X54225714Y32656629D01*
X53940000Y33656629D01*
X52725714Y32656629D02*
X52725714Y33442343D01*
X52797142Y33585200D01*
X52940000Y33656629D01*
X53225714Y33656629D01*
X53368571Y33585200D01*
X52725714Y32728058D02*
X52868571Y32656629D01*
X53225714Y32656629D01*
X53368571Y32728058D01*
X53440000Y32870915D01*
X53440000Y33013772D01*
X53368571Y33156629D01*
X53225714Y33228058D01*
X52868571Y33228058D01*
X52725714Y33299486D01*
X52011428Y32656629D02*
X52011428Y33656629D01*
X52011428Y33370915D02*
X51940000Y33513772D01*
X51868571Y33585200D01*
X51725714Y33656629D01*
X51582857Y33656629D01*
X50511428Y32728058D02*
X50654285Y32656629D01*
X50940000Y32656629D01*
X51082857Y32728058D01*
X51154285Y32870915D01*
X51154285Y33442343D01*
X51082857Y33585200D01*
X50940000Y33656629D01*
X50654285Y33656629D01*
X50511428Y33585200D01*
X50440000Y33442343D01*
X50440000Y33299486D01*
X51154285Y33156629D01*
X64733571Y28236629D02*
X65233571Y28950915D01*
X65590714Y28236629D02*
X65590714Y29736629D01*
X65019285Y29736629D01*
X64876428Y29665200D01*
X64805000Y29593772D01*
X64733571Y29450915D01*
X64733571Y29236629D01*
X64805000Y29093772D01*
X64876428Y29022343D01*
X65019285Y28950915D01*
X65590714Y28950915D01*
X63519285Y28308058D02*
X63662142Y28236629D01*
X63947857Y28236629D01*
X64090714Y28308058D01*
X64162142Y28450915D01*
X64162142Y29022343D01*
X64090714Y29165200D01*
X63947857Y29236629D01*
X63662142Y29236629D01*
X63519285Y29165200D01*
X63447857Y29022343D01*
X63447857Y28879486D01*
X64162142Y28736629D01*
X62805000Y28236629D02*
X62805000Y29236629D01*
X62805000Y29093772D02*
X62733571Y29165200D01*
X62590714Y29236629D01*
X62376428Y29236629D01*
X62233571Y29165200D01*
X62162142Y29022343D01*
X62162142Y28236629D01*
X62162142Y29022343D02*
X62090714Y29165200D01*
X61947857Y29236629D01*
X61733571Y29236629D01*
X61590714Y29165200D01*
X61519285Y29022343D01*
X61519285Y28236629D01*
X60590714Y28236629D02*
X60733571Y28308058D01*
X60805000Y28379486D01*
X60876428Y28522343D01*
X60876428Y28950915D01*
X60805000Y29093772D01*
X60733571Y29165200D01*
X60590714Y29236629D01*
X60376428Y29236629D01*
X60233571Y29165200D01*
X60162142Y29093772D01*
X60090714Y28950915D01*
X60090714Y28522343D01*
X60162142Y28379486D01*
X60233571Y28308058D01*
X60376428Y28236629D01*
X60590714Y28236629D01*
X59590714Y29236629D02*
X59233571Y28236629D01*
X58876428Y29236629D01*
X57733571Y28308058D02*
X57876428Y28236629D01*
X58162142Y28236629D01*
X58305000Y28308058D01*
X58376428Y28450915D01*
X58376428Y29022343D01*
X58305000Y29165200D01*
X58162142Y29236629D01*
X57876428Y29236629D01*
X57733571Y29165200D01*
X57662142Y29022343D01*
X57662142Y28879486D01*
X58376428Y28736629D01*
X55447857Y29736629D02*
X55447857Y28665200D01*
X55519285Y28450915D01*
X55662142Y28308058D01*
X55876428Y28236629D01*
X56019285Y28236629D01*
X54733571Y28236629D02*
X54733571Y29736629D01*
X54162142Y29736629D01*
X54019285Y29665200D01*
X53947857Y29593772D01*
X53876428Y29450915D01*
X53876428Y29236629D01*
X53947857Y29093772D01*
X54019285Y29022343D01*
X54162142Y28950915D01*
X54733571Y28950915D01*
X52447857Y28236629D02*
X53305000Y28236629D01*
X52876428Y28236629D02*
X52876428Y29736629D01*
X53019285Y29522343D01*
X53162142Y29379486D01*
X53305000Y29308058D01*
X66055000Y25686629D02*
X66055000Y27186629D01*
X66055000Y25758058D02*
X66197857Y25686629D01*
X66483571Y25686629D01*
X66626428Y25758058D01*
X66697857Y25829486D01*
X66769285Y25972343D01*
X66769285Y26400915D01*
X66697857Y26543772D01*
X66626428Y26615200D01*
X66483571Y26686629D01*
X66197857Y26686629D01*
X66055000Y26615200D01*
X64697857Y26686629D02*
X64697857Y25686629D01*
X65340714Y26686629D02*
X65340714Y25900915D01*
X65269285Y25758058D01*
X65126428Y25686629D01*
X64912142Y25686629D01*
X64769285Y25758058D01*
X64697857Y25829486D01*
X63983571Y25686629D02*
X63983571Y26686629D01*
X63983571Y26400915D02*
X63912142Y26543772D01*
X63840714Y26615200D01*
X63697857Y26686629D01*
X63555000Y26686629D01*
X63055000Y25686629D02*
X63055000Y26686629D01*
X63055000Y27186629D02*
X63126428Y27115200D01*
X63055000Y27043772D01*
X62983571Y27115200D01*
X63055000Y27186629D01*
X63055000Y27043772D01*
X62340714Y26686629D02*
X62340714Y25686629D01*
X62340714Y26543772D02*
X62269285Y26615200D01*
X62126428Y26686629D01*
X61912142Y26686629D01*
X61769285Y26615200D01*
X61697857Y26472343D01*
X61697857Y25686629D01*
X60340714Y26686629D02*
X60340714Y25472343D01*
X60412142Y25329486D01*
X60483571Y25258058D01*
X60626428Y25186629D01*
X60840714Y25186629D01*
X60983571Y25258058D01*
X60340714Y25758058D02*
X60483571Y25686629D01*
X60769285Y25686629D01*
X60912142Y25758058D01*
X60983571Y25829486D01*
X61055000Y25972343D01*
X61055000Y26400915D01*
X60983571Y26543772D01*
X60912142Y26615200D01*
X60769285Y26686629D01*
X60483571Y26686629D01*
X60340714Y26615200D01*
X58483571Y26686629D02*
X58483571Y25686629D01*
X58483571Y26543772D02*
X58412142Y26615200D01*
X58269285Y26686629D01*
X58055000Y26686629D01*
X57912142Y26615200D01*
X57840714Y26472343D01*
X57840714Y25686629D01*
X56912142Y25686629D02*
X57055000Y25758058D01*
X57126428Y25829486D01*
X57197857Y25972343D01*
X57197857Y26400915D01*
X57126428Y26543772D01*
X57055000Y26615200D01*
X56912142Y26686629D01*
X56697857Y26686629D01*
X56555000Y26615200D01*
X56483571Y26543772D01*
X56412142Y26400915D01*
X56412142Y25972343D01*
X56483571Y25829486D01*
X56555000Y25758058D01*
X56697857Y25686629D01*
X56912142Y25686629D01*
X55769285Y25686629D02*
X55769285Y26686629D01*
X55769285Y26400915D02*
X55697857Y26543772D01*
X55626428Y26615200D01*
X55483571Y26686629D01*
X55340714Y26686629D01*
X54840714Y25686629D02*
X54840714Y26686629D01*
X54840714Y26543772D02*
X54769285Y26615200D01*
X54626428Y26686629D01*
X54412142Y26686629D01*
X54269285Y26615200D01*
X54197857Y26472343D01*
X54197857Y25686629D01*
X54197857Y26472343D02*
X54126428Y26615200D01*
X53983571Y26686629D01*
X53769285Y26686629D01*
X53626428Y26615200D01*
X53555000Y26472343D01*
X53555000Y25686629D01*
X52197857Y25686629D02*
X52197857Y26472343D01*
X52269285Y26615200D01*
X52412142Y26686629D01*
X52697857Y26686629D01*
X52840714Y26615200D01*
X52197857Y25758058D02*
X52340714Y25686629D01*
X52697857Y25686629D01*
X52840714Y25758058D01*
X52912142Y25900915D01*
X52912142Y26043772D01*
X52840714Y26186629D01*
X52697857Y26258058D01*
X52340714Y26258058D01*
X52197857Y26329486D01*
X51269285Y25686629D02*
X51412142Y25758058D01*
X51483571Y25900915D01*
X51483571Y27186629D01*
X63769285Y23136629D02*
X63912142Y23208058D01*
X63983571Y23279486D01*
X64055000Y23422343D01*
X64055000Y23850915D01*
X63983571Y23993772D01*
X63912142Y24065200D01*
X63769285Y24136629D01*
X63555000Y24136629D01*
X63412142Y24065200D01*
X63340714Y23993772D01*
X63269285Y23850915D01*
X63269285Y23422343D01*
X63340714Y23279486D01*
X63412142Y23208058D01*
X63555000Y23136629D01*
X63769285Y23136629D01*
X62626428Y24136629D02*
X62626428Y22636629D01*
X62626428Y24065200D02*
X62483571Y24136629D01*
X62197857Y24136629D01*
X62055000Y24065200D01*
X61983571Y23993772D01*
X61912142Y23850915D01*
X61912142Y23422343D01*
X61983571Y23279486D01*
X62055000Y23208058D01*
X62197857Y23136629D01*
X62483571Y23136629D01*
X62626428Y23208058D01*
X60697857Y23208058D02*
X60840714Y23136629D01*
X61126428Y23136629D01*
X61269285Y23208058D01*
X61340714Y23350915D01*
X61340714Y23922343D01*
X61269285Y24065200D01*
X61126428Y24136629D01*
X60840714Y24136629D01*
X60697857Y24065200D01*
X60626428Y23922343D01*
X60626428Y23779486D01*
X61340714Y23636629D01*
X59983571Y23136629D02*
X59983571Y24136629D01*
X59983571Y23850915D02*
X59912142Y23993772D01*
X59840714Y24065200D01*
X59697857Y24136629D01*
X59555000Y24136629D01*
X58412142Y23136629D02*
X58412142Y23922343D01*
X58483571Y24065200D01*
X58626428Y24136629D01*
X58912142Y24136629D01*
X59055000Y24065200D01*
X58412142Y23208058D02*
X58555000Y23136629D01*
X58912142Y23136629D01*
X59055000Y23208058D01*
X59126428Y23350915D01*
X59126428Y23493772D01*
X59055000Y23636629D01*
X58912142Y23708058D01*
X58555000Y23708058D01*
X58412142Y23779486D01*
X57912142Y24136629D02*
X57340714Y24136629D01*
X57697857Y24636629D02*
X57697857Y23350915D01*
X57626428Y23208058D01*
X57483571Y23136629D01*
X57340714Y23136629D01*
X56840714Y23136629D02*
X56840714Y24136629D01*
X56840714Y24636629D02*
X56912142Y24565200D01*
X56840714Y24493772D01*
X56769285Y24565200D01*
X56840714Y24636629D01*
X56840714Y24493772D01*
X55912142Y23136629D02*
X56055000Y23208058D01*
X56126428Y23279486D01*
X56197857Y23422343D01*
X56197857Y23850915D01*
X56126428Y23993772D01*
X56055000Y24065200D01*
X55912142Y24136629D01*
X55697857Y24136629D01*
X55555000Y24065200D01*
X55483571Y23993772D01*
X55412142Y23850915D01*
X55412142Y23422343D01*
X55483571Y23279486D01*
X55555000Y23208058D01*
X55697857Y23136629D01*
X55912142Y23136629D01*
X54769285Y24136629D02*
X54769285Y23136629D01*
X54769285Y23993772D02*
X54697857Y24065200D01*
X54555000Y24136629D01*
X54340714Y24136629D01*
X54197857Y24065200D01*
X54126428Y23922343D01*
X54126428Y23136629D01*
X34594285Y46162343D02*
X35094285Y46162343D01*
X35094285Y45376629D02*
X35094285Y46876629D01*
X34380000Y46876629D01*
X33165714Y45376629D02*
X33165714Y46162343D01*
X33237142Y46305200D01*
X33380000Y46376629D01*
X33665714Y46376629D01*
X33808571Y46305200D01*
X33165714Y45448058D02*
X33308571Y45376629D01*
X33665714Y45376629D01*
X33808571Y45448058D01*
X33880000Y45590915D01*
X33880000Y45733772D01*
X33808571Y45876629D01*
X33665714Y45948058D01*
X33308571Y45948058D01*
X33165714Y46019486D01*
X32451428Y45376629D02*
X32451428Y46876629D01*
X32451428Y46305200D02*
X32308571Y46376629D01*
X32022857Y46376629D01*
X31880000Y46305200D01*
X31808571Y46233772D01*
X31737142Y46090915D01*
X31737142Y45662343D01*
X31808571Y45519486D01*
X31880000Y45448058D01*
X32022857Y45376629D01*
X32308571Y45376629D01*
X32451428Y45448058D01*
X30308571Y46805200D02*
X30451428Y46876629D01*
X30665714Y46876629D01*
X30880000Y46805200D01*
X31022857Y46662343D01*
X31094285Y46519486D01*
X31165714Y46233772D01*
X31165714Y46019486D01*
X31094285Y45733772D01*
X31022857Y45590915D01*
X30880000Y45448058D01*
X30665714Y45376629D01*
X30522857Y45376629D01*
X30308571Y45448058D01*
X30237142Y45519486D01*
X30237142Y46019486D01*
X30522857Y46019486D01*
X28880000Y45376629D02*
X29594285Y45376629D01*
X29594285Y46876629D01*
X27451428Y46876629D02*
X26951428Y45376629D01*
X26451428Y46876629D01*
X25165714Y46805200D02*
X25308571Y46876629D01*
X25522857Y46876629D01*
X25737142Y46805200D01*
X25880000Y46662343D01*
X25951428Y46519486D01*
X26022857Y46233772D01*
X26022857Y46019486D01*
X25951428Y45733772D01*
X25880000Y45590915D01*
X25737142Y45448058D01*
X25522857Y45376629D01*
X25380000Y45376629D01*
X25165714Y45448058D01*
X25094285Y45519486D01*
X25094285Y46019486D01*
X25380000Y46019486D01*
X24522857Y45805200D02*
X23808571Y45805200D01*
X24665714Y45376629D02*
X24165714Y46876629D01*
X23665714Y45376629D01*
X22237142Y46876629D02*
X21380000Y46876629D01*
X21808571Y45376629D02*
X21808571Y46876629D01*
X20308571Y45448058D02*
X20451428Y45376629D01*
X20737142Y45376629D01*
X20880000Y45448058D01*
X20951428Y45590915D01*
X20951428Y46162343D01*
X20880000Y46305200D01*
X20737142Y46376629D01*
X20451428Y46376629D01*
X20308571Y46305200D01*
X20237142Y46162343D01*
X20237142Y46019486D01*
X20951428Y45876629D01*
X19594285Y45376629D02*
X19594285Y46376629D01*
X19594285Y46090915D02*
X19522857Y46233772D01*
X19451428Y46305200D01*
X19308571Y46376629D01*
X19165714Y46376629D01*
X18665714Y45376629D02*
X18665714Y46376629D01*
X18665714Y46233772D02*
X18594285Y46305200D01*
X18451428Y46376629D01*
X18237142Y46376629D01*
X18094285Y46305200D01*
X18022857Y46162343D01*
X18022857Y45376629D01*
X18022857Y46162343D02*
X17951428Y46305200D01*
X17808571Y46376629D01*
X17594285Y46376629D01*
X17451428Y46305200D01*
X17380000Y46162343D01*
X17380000Y45376629D01*
X16665714Y45376629D02*
X16665714Y46376629D01*
X16665714Y46876629D02*
X16737142Y46805200D01*
X16665714Y46733772D01*
X16594285Y46805200D01*
X16665714Y46876629D01*
X16665714Y46733772D01*
X15951428Y46376629D02*
X15951428Y45376629D01*
X15951428Y46233772D02*
X15880000Y46305200D01*
X15737142Y46376629D01*
X15522857Y46376629D01*
X15380000Y46305200D01*
X15308571Y46162343D01*
X15308571Y45376629D01*
X13951428Y45376629D02*
X13951428Y46162343D01*
X14022857Y46305200D01*
X14165714Y46376629D01*
X14451428Y46376629D01*
X14594285Y46305200D01*
X13951428Y45448058D02*
X14094285Y45376629D01*
X14451428Y45376629D01*
X14594285Y45448058D01*
X14665714Y45590915D01*
X14665714Y45733772D01*
X14594285Y45876629D01*
X14451428Y45948058D01*
X14094285Y45948058D01*
X13951428Y46019486D01*
X13022857Y45376629D02*
X13165714Y45448058D01*
X13237142Y45590915D01*
X13237142Y46876629D01*
X30344285Y42826629D02*
X30344285Y44326629D01*
X29772857Y44326629D01*
X29630000Y44255200D01*
X29558571Y44183772D01*
X29487142Y44040915D01*
X29487142Y43826629D01*
X29558571Y43683772D01*
X29630000Y43612343D01*
X29772857Y43540915D01*
X30344285Y43540915D01*
X28844285Y42826629D02*
X28844285Y44326629D01*
X28487142Y44326629D01*
X28272857Y44255200D01*
X28130000Y44112343D01*
X28058571Y43969486D01*
X27987142Y43683772D01*
X27987142Y43469486D01*
X28058571Y43183772D01*
X28130000Y43040915D01*
X28272857Y42898058D01*
X28487142Y42826629D01*
X28844285Y42826629D01*
X26558571Y42826629D02*
X27415714Y42826629D01*
X26987142Y42826629D02*
X26987142Y44326629D01*
X27130000Y44112343D01*
X27272857Y43969486D01*
X27415714Y43898058D01*
X25630000Y44326629D02*
X25487142Y44326629D01*
X25344285Y44255200D01*
X25272857Y44183772D01*
X25201428Y44040915D01*
X25130000Y43755200D01*
X25130000Y43398058D01*
X25201428Y43112343D01*
X25272857Y42969486D01*
X25344285Y42898058D01*
X25487142Y42826629D01*
X25630000Y42826629D01*
X25772857Y42898058D01*
X25844285Y42969486D01*
X25915714Y43112343D01*
X25987142Y43398058D01*
X25987142Y43755200D01*
X25915714Y44040915D01*
X25844285Y44183772D01*
X25772857Y44255200D01*
X25630000Y44326629D01*
X24630000Y44326629D02*
X23701428Y44326629D01*
X24201428Y43755200D01*
X23987142Y43755200D01*
X23844285Y43683772D01*
X23772857Y43612343D01*
X23701428Y43469486D01*
X23701428Y43112343D01*
X23772857Y42969486D01*
X23844285Y42898058D01*
X23987142Y42826629D01*
X24415714Y42826629D01*
X24558571Y42898058D01*
X24630000Y42969486D01*
X22058571Y43826629D02*
X21701428Y42826629D01*
X21344285Y43826629D01*
X19987142Y42826629D02*
X20844285Y42826629D01*
X20415714Y42826629D02*
X20415714Y44326629D01*
X20558571Y44112343D01*
X20701428Y43969486D01*
X20844285Y43898058D01*
X19344285Y42969486D02*
X19272857Y42898058D01*
X19344285Y42826629D01*
X19415714Y42898058D01*
X19344285Y42969486D01*
X19344285Y42826629D01*
X18344285Y44326629D02*
X18201428Y44326629D01*
X18058571Y44255200D01*
X17987142Y44183772D01*
X17915714Y44040915D01*
X17844285Y43755200D01*
X17844285Y43398058D01*
X17915714Y43112343D01*
X17987142Y42969486D01*
X18058571Y42898058D01*
X18201428Y42826629D01*
X18344285Y42826629D01*
X18487142Y42898058D01*
X18558571Y42969486D01*
X18630000Y43112343D01*
X18701428Y43398058D01*
X18701428Y43755200D01*
X18630000Y44040915D01*
X18558571Y44183772D01*
X18487142Y44255200D01*
X18344285Y44326629D01*
M02*
